<?xml version="1.0" encoding="utf-8"?><svg xmlns="http://www.w3.org/2000/svg" xmlns:xlink="http://www.w3.org/1999/xlink"><symbol viewBox="0 0 575 944" id="arrow" xmlns="http://www.w3.org/2000/svg"><path d="M51.2 51.3L0 102.5l184.8 184.8L369.6 472 184.8 656.7 0 841.5l51.2 51.2 51.2 51.2 236.1-235.7c129.8-129.6 236-235.9 236-236.2 0-.3-106.2-106.6-236-236.2L102.4.1 51.2 51.3z"/></symbol><symbol viewBox="0 0 1711 1070" id="car" xmlns="http://www.w3.org/2000/svg"><path d="M0 437.5V875l45.7-.2 45.6-.3 1.8-8.5c18.5-88.1 90.3-159.9 178.4-178.3 33.7-7.1 69.3-6.7 102 1 49 11.5 95 40.5 127.5 80.3 21 25.6 38.8 62.5 46.1 95.7l2.3 10.3h563.5l1.1-5.8c5.5-28 17.3-56.6 33.8-81.8 17.5-26.6 39.7-48.8 66.7-66.7 76.8-50.8 178.5-50.8 254.8.1 36 24 62.6 54.3 81.2 92.7 9.9 20.3 14.4 33.6 20 59.2l.5 2.3h140V744.2c0-143.6.1-140.1-6.1-158.6-3.8-11.4-9.8-23-16.9-32.6-4.7-6.2-40.5-41.9-73.6-73.3l-7.1-6.7h-242.9c-164.7 0-245-.4-249.4-1.1-13-2.1-25.4-11.8-30.2-23.7l-2.3-5.7-.5-172c-.6-188.2-.1-173-6.2-191.5-13.1-40.3-51.3-72-94.2-77.9C976.2.3 828 0 486.9 0H0v437.5z"/><path d="M1160 289.5V395h191c105.1 0 191-.3 191-.6 0-.4-24.4-37.6-54.2-82.7-50.9-76.9-54.9-82.6-64.3-92.3-19.3-19.7-42.9-31.3-69.8-34.3-6.1-.7-43-1.1-101.7-1.1h-92v105.5zm-862.3 472c-50.8 8.3-92.2 38-115.1 82.5-35.8 69.8-14.5 154.5 50.3 198.9 36.2 24.8 81.1 33 124.1 22.5 51.6-12.4 93.6-51.2 110.3-101.6 5.9-17.7 7.2-26.7 7.2-48.8-.1-17.2-.4-22.1-2.3-30.6-3.3-15.2-6.6-24.6-13.7-38.9-21-42.4-60.2-72.5-107.3-82.6-13-2.7-40.9-3.5-53.5-1.4zm1024.3-.4c-57.7 7.4-107.3 47.7-126.4 102.8-6.6 19-8 28-8 51.1s1.4 32.2 8 51.1c25.9 74.4 104.6 117.7 181.2 99.8 60.4-14.1 106.8-63 117.8-124.4 2.7-14.9 2.5-40.5-.4-55.2-14.7-74.1-78.7-126.9-153.2-126.2-6.9.1-15.4.5-19 1z"/></symbol><symbol viewBox="0 0 567 739" id="cart" xmlns="http://www.w3.org/2000/svg"><path d="M262.9 1.5C196.4 12.3 146.4 65.4 138 134c-.5 4.6-1 19.4-1 32.7V191l-62.3.2-62.3.3-3.6 2.4c-1.9 1.3-4.6 4-5.9 5.9l-2.4 3.6-.3 242.3C0 713.4-.5 694.1 6.3 707.9c4.3 8.9 15.9 20.5 24.8 24.8 13.6 6.7-4.5 6.3 252.4 6.3s238.8.4 252.4-6.3c8.9-4.3 20.5-15.9 24.8-24.8 6.8-13.8 6.3 5.5 6.1-262.2l-.3-242.3-2.4-3.6c-1.3-1.9-4-4.6-5.9-5.9l-3.6-2.4-62.2-.3-62.2-.2-.5-29.8c-.5-32.5-1.5-39.7-7.8-58.7C405.2 52.2 363 13.8 312.5 3 299.4.2 275.1-.5 262.9 1.5zm32 46.5c45.5 5.8 81.6 44 87 92.3.6 5.3 1.1 18.9 1.1 30.2V191H184v-20.5c0-33.2 2.5-47.5 11.5-66.1 12.5-25.8 34-44.6 60.5-52.8 13.7-4.3 24.9-5.3 38.9-3.6z"/></symbol><symbol viewBox="0 0 575 575" id="close" xmlns="http://www.w3.org/2000/svg"><path d="M33.2 33.3L0 66.5l110 110c60.5 60.5 110 110.4 110 111 0 .6-49.5 50.5-110 111L0 508.5l33.2 33.2L66.5 575l110-110c60.5-60.5 110.5-110 111-110 .6 0 50.5 49.5 111 110l110 110 33.2-33.2 33.3-33.3-110-110C404.5 338 355 288 355 287.5c0-.6 49.5-50.5 110-111l110-110-33.2-33.2L508.5 0l-110 110C338 170.5 288 220 287.5 220s-50.5-49.5-111-110L66.5 0 33.2 33.3z"/></symbol><symbol viewBox="0 -31 512 512" id="cloud-success" xmlns="http://www.w3.org/2000/svg"><path d="M90 300h122.762c7.613-83.969 78.32-150 164.238-150 25.227 0 49.059 5.86 70.465 16.023-11.61-39.996-46.149-70.398-89.508-75.203C344.742 38.262 296.918 0 242 0c-42.613 0-83.105 23.23-104.434 60.027-36.93-1.71-71.105 27.07-76.554 65.23C25.062 137.505 0 171.489 0 210c0 49.629 40.371 90 90 90zm0 0"/><path d="M377 180c-74.441 0-135 60.559-135 135s60.559 135 135 135 135-60.559 135-135-60.559-135-135-135zm-15 201.21l-55.605-55.605 21.21-21.21L362 338.789l64.395-64.394 21.21 21.21zm0 0"/></symbol><symbol viewBox="0 0 548.176 548.176" id="cloud-uploading" xmlns="http://www.w3.org/2000/svg"><path d="M524.326 297.352c-15.896-19.89-36.21-32.782-60.959-38.684 7.81-11.8 11.704-24.934 11.704-39.399 0-20.177-7.139-37.401-21.409-51.678-14.273-14.272-31.498-21.411-51.675-21.411-18.083 0-33.879 5.901-47.39 17.703-11.225-27.41-29.171-49.393-53.817-65.95-24.646-16.562-51.818-24.842-81.514-24.842-40.349 0-74.802 14.279-103.353 42.83-28.553 28.544-42.825 62.999-42.825 103.351 0 2.474.191 6.567.571 12.275-22.459 10.469-40.349 26.171-53.676 47.106C6.661 299.594 0 322.43 0 347.179c0 35.214 12.517 65.329 37.544 90.358 25.028 25.037 55.15 37.548 90.362 37.548h310.636c30.259 0 56.096-10.711 77.512-32.12 21.413-21.409 32.121-47.246 32.121-77.516-.003-25.505-7.952-48.201-23.849-68.097zm-161.597-7.704c-1.813 1.804-3.949 2.707-6.42 2.707h-63.953v100.502c0 2.471-.903 4.613-2.711 6.42-1.813 1.813-3.949 2.711-6.42 2.711h-54.826c-2.474 0-4.615-.897-6.423-2.711-1.804-1.807-2.712-3.949-2.712-6.42V292.355H155.31c-2.662 0-4.853-.855-6.563-2.563-1.713-1.714-2.568-3.904-2.568-6.566 0-2.286.95-4.572 2.852-6.855l100.213-100.21c1.713-1.714 3.903-2.57 6.567-2.57 2.666 0 4.856.856 6.567 2.57l100.499 100.495c1.714 1.712 2.562 3.901 2.562 6.571-.001 2.469-.904 4.618-2.71 6.421z"/></symbol><symbol viewBox="0 0 96.124 96.123" id="fb" xmlns="http://www.w3.org/2000/svg"><path d="M72.089.02L59.624 0C45.62 0 36.57 9.285 36.57 23.656v10.907H24.037a1.96 1.96 0 00-1.96 1.961v15.803a1.96 1.96 0 001.96 1.96H36.57v39.876a1.96 1.96 0 001.96 1.96h16.352a1.96 1.96 0 001.96-1.96V54.287h14.654a1.96 1.96 0 001.96-1.96l.006-15.803a1.963 1.963 0 00-1.961-1.961H56.842v-9.246c0-4.444 1.059-6.7 6.848-6.7l8.397-.003a1.96 1.96 0 001.959-1.96V1.98A1.96 1.96 0 0072.089.02z"/></symbol><symbol viewBox="0 0 876 766" id="heart" xmlns="http://www.w3.org/2000/svg"><path d="M227 .7c-38.5 3.6-65 11.1-96 26.8C69.1 59 24.1 114.8 7.5 180.5 1.9 202.6.6 213.8.6 239c0 25.3 1.3 36.6 6.9 58.6 8.8 34.5 24.1 64.2 47.9 93.1 2.8 3.5 90.1 89.3 194 190.9l188.8 184.6 18.7-18.4c10.2-10.2 94.9-93 188.2-184.1 119.1-116.2 172.1-168.6 178-175.9 21.9-27.2 37.1-57.5 45.5-90.4 5.6-22.1 6.9-33.1 6.8-58.4 0-25.3-1.3-36.7-6.9-58.5-10.6-41.6-31-77.1-62.5-108.6-38.4-38.6-85.3-61.6-142.5-70-11.9-1.8-50-1.8-62.5-.1-46.5 6.6-85.2 22.7-122 51.1-4.7 3.6-15.5 13.4-24.1 21.8-8.6 8.4-16.1 15.3-16.6 15.3s-8.2-7-17.2-15.5c-22.3-21.3-36.4-32-57-43.5C327.5 10.7 283.5-.4 242 .2c-6.3 0-13.1.3-15 .5z"/></symbol><symbol viewBox="0 0 1563 1563" id="hour" xmlns="http://www.w3.org/2000/svg"><path d="M745.5.6c-74.9 4-144.1 17.2-212.6 40.3C395.6 87.3 274.9 170.4 180 284c-44.7 53.6-84.8 118.2-113.3 182.5-35.8 81-56 160.5-64.4 253-2.4 26.8-2.4 97.2 0 124 6.2 68.7 18 125.7 38.6 186.6 46.4 137.3 129.5 258 243.1 352.9 53.6 44.7 118.2 84.8 182.5 113.3 81 35.8 160.5 56 253 64.4 26.8 2.4 97.2 2.4 124 0 92.5-8.4 172-28.6 253-64.4 123.5-54.6 233.8-143.4 314.9-253.6 79-107.4 128.9-232.4 145.5-364.2 4.6-36.1 5.5-52.2 5.5-97 0-32.6-.4-47.6-1.7-62-6.2-68.7-18-125.7-38.6-186.6-46.4-137.3-129.5-258-243.1-352.9-53.6-44.7-118.2-84.8-182.5-113.3-80.7-35.6-161.7-56.3-252-64.2-17.1-1.5-82.6-2.8-99-1.9zM599.7 481.5c8.8 2.8 16.5 7.6 23.1 14.4 2.5 2.5 45.3 65.8 95.2 140.6l90.7 136.1 195.9 72.3c107.8 39.7 198.3 73.7 201.3 75.4 11.5 6.7 21.4 19.6 24.7 32.1 3.1 11.7 1.1 27.4-4.9 37.5-10.1 17.1-28.4 26.9-48.2 25.9-7.7-.5-16.1-3.5-212.5-76.2-112.5-41.7-207.2-77-210.5-78.6-3.3-1.5-9.3-5.6-13.3-9.1-6.8-6-13.3-15.5-103.7-149.7-53.1-78.8-97.6-145.5-99-148.2-10-19.8-6.2-42.6 10-59.8 13.1-13.9 32.3-18.7 51.2-12.7z"/></symbol><symbol viewBox="0 0 511 511.9" id="inst" xmlns="http://www.w3.org/2000/svg"><path d="M510.95 150.5c-1.2-27.2-5.598-45.898-11.9-62.102-6.5-17.199-16.5-32.597-29.6-45.398-12.802-13-28.302-23.102-45.302-29.5-16.296-6.3-34.898-10.7-62.097-11.898C334.648.3 325.949 0 256.449 0s-78.199.3-105.5 1.5c-27.199 1.2-45.898 5.602-62.097 11.898-17.204 6.5-32.602 16.5-45.403 29.602-13 12.8-23.097 28.3-29.5 45.3-6.3 16.302-10.699 34.9-11.898 62.098C.75 177.801.449 186.5.449 256s.301 78.2 1.5 105.5c1.2 27.2 5.602 45.898 11.903 62.102 6.5 17.199 16.597 32.597 29.597 45.398 12.801 13 28.301 23.102 45.301 29.5 16.3 6.3 34.898 10.7 62.102 11.898 27.296 1.204 36 1.5 105.5 1.5s78.199-.296 105.5-1.5c27.199-1.199 45.898-5.597 62.097-11.898a130.934 130.934 0 0074.903-74.898c6.296-16.301 10.699-34.903 11.898-62.102 1.2-27.3 1.5-36 1.5-105.5s-.102-78.2-1.3-105.5zm-46.098 209c-1.102 25-5.301 38.5-8.801 47.5-8.602 22.3-26.301 40-48.602 48.602-9 3.5-22.597 7.699-47.5 8.796-27 1.204-35.097 1.5-103.398 1.5s-76.5-.296-103.403-1.5c-25-1.097-38.5-5.296-47.5-8.796C94.551 451.5 84.45 445 76.25 436.5c-8.5-8.3-15-18.3-19.102-29.398-3.5-9-7.699-22.602-8.796-47.5-1.204-27-1.5-35.102-1.5-103.403s.296-76.5 1.5-103.398c1.097-25 5.296-38.5 8.796-47.5C61.25 94.199 67.75 84.1 76.352 75.898c8.296-8.5 18.296-15 29.398-19.097 9-3.5 22.602-7.7 47.5-8.801 27-1.2 35.102-1.5 103.398-1.5 68.403 0 76.5.3 103.403 1.5 25 1.102 38.5 5.3 47.5 8.8 11.097 4.098 21.199 10.598 29.398 19.098 8.5 8.301 15 18.301 19.102 29.403 3.5 9 7.699 22.597 8.8 47.5 1.2 27 1.5 35.097 1.5 103.398s-.3 76.301-1.5 103.301zm0 0"/><path d="M256.45 124.5c-72.598 0-131.5 58.898-131.5 131.5s58.902 131.5 131.5 131.5c72.6 0 131.5-58.898 131.5-131.5s-58.9-131.5-131.5-131.5zm0 216.8c-47.098 0-85.302-38.198-85.302-85.3s38.204-85.3 85.301-85.3c47.102 0 85.301 38.198 85.301 85.3s-38.2 85.3-85.3 85.3zm167.402-222c0 16.954-13.747 30.7-30.704 30.7-16.953 0-30.699-13.746-30.699-30.7 0-16.956 13.746-30.698 30.7-30.698 16.956 0 30.703 13.742 30.703 30.699zm0 0"/></symbol><symbol viewBox="0 0 511 511.9" id="instagram" xmlns="http://www.w3.org/2000/svg"><path d="M510.95 150.5c-1.2-27.2-5.598-45.898-11.9-62.102-6.5-17.199-16.5-32.597-29.6-45.398-12.802-13-28.302-23.102-45.302-29.5-16.296-6.3-34.898-10.7-62.097-11.898C334.648.3 325.949 0 256.449 0s-78.199.3-105.5 1.5c-27.199 1.2-45.898 5.602-62.097 11.898-17.204 6.5-32.602 16.5-45.403 29.602-13 12.8-23.097 28.3-29.5 45.3-6.3 16.302-10.699 34.9-11.898 62.098C.75 177.801.449 186.5.449 256s.301 78.2 1.5 105.5c1.2 27.2 5.602 45.898 11.903 62.102 6.5 17.199 16.597 32.597 29.597 45.398 12.801 13 28.301 23.102 45.301 29.5 16.3 6.3 34.898 10.7 62.102 11.898 27.296 1.204 36 1.5 105.5 1.5s78.199-.296 105.5-1.5c27.199-1.199 45.898-5.597 62.097-11.898a130.934 130.934 0 0074.903-74.898c6.296-16.301 10.699-34.903 11.898-62.102 1.2-27.3 1.5-36 1.5-105.5s-.102-78.2-1.3-105.5zm-46.098 209c-1.102 25-5.301 38.5-8.801 47.5-8.602 22.3-26.301 40-48.602 48.602-9 3.5-22.597 7.699-47.5 8.796-27 1.204-35.097 1.5-103.398 1.5s-76.5-.296-103.403-1.5c-25-1.097-38.5-5.296-47.5-8.796C94.551 451.5 84.45 445 76.25 436.5c-8.5-8.3-15-18.3-19.102-29.398-3.5-9-7.699-22.602-8.796-47.5-1.204-27-1.5-35.102-1.5-103.403s.296-76.5 1.5-103.398c1.097-25 5.296-38.5 8.796-47.5C61.25 94.199 67.75 84.1 76.352 75.898c8.296-8.5 18.296-15 29.398-19.097 9-3.5 22.602-7.7 47.5-8.801 27-1.2 35.102-1.5 103.398-1.5 68.403 0 76.5.3 103.403 1.5 25 1.102 38.5 5.3 47.5 8.8 11.097 4.098 21.199 10.598 29.398 19.098 8.5 8.301 15 18.301 19.102 29.403 3.5 9 7.699 22.597 8.8 47.5 1.2 27 1.5 35.097 1.5 103.398s-.3 76.301-1.5 103.301zm0 0"/><path d="M256.45 124.5c-72.598 0-131.5 58.898-131.5 131.5s58.902 131.5 131.5 131.5c72.6 0 131.5-58.898 131.5-131.5s-58.9-131.5-131.5-131.5zm0 216.8c-47.098 0-85.302-38.198-85.302-85.3s38.204-85.3 85.301-85.3c47.102 0 85.301 38.198 85.301 85.3s-38.2 85.3-85.3 85.3zm167.402-222c0 16.954-13.747 30.7-30.704 30.7-16.953 0-30.699-13.746-30.699-30.7 0-16.956 13.746-30.698 30.7-30.698 16.956 0 30.703 13.742 30.703 30.699zm0 0"/></symbol><symbol viewBox="0 0 2835 3466" id="logo" xmlns="http://www.w3.org/2000/svg"><path d="M2104.2 1c-5.8 1.4-15.5 6.9-22.5 12.8-13.2 11.2-26.5 28.5-44.2 57.6-5.3 8.7-16.8 26.5-25.4 39.5-62.2 93.1-123.4 193.8-186.6 306.6-6.5 11.5-11.9 21.1-12 21.3-.2.2-3.5-1.1-7.4-2.8-27.1-11.9-66.4-25.6-104.1-36.5-162.3-46.6-359.1-58.8-525.2-32.7-15.6 2.5-17.6 2.6-16.2 1.1.8-.9 4.2-2.7 7.5-4 5.5-2.2 11.7-6.4 10.7-7.4-.2-.2-10 1.8-21.8 4.5-36.4 8.4-97.1 20.2-102.5 20-3.4-.2 39.9-14.9 85-29 19.3-6 42.2-13.4 51-16.4 18.6-6.3 42.8-15.6 42.2-16.2-.2-.2-7.8.5-16.8 1.7-98.3 12.4-191.9 42.9-304.4 99.1-50.5 25.3-142.3 75.5-173 94.6-101.7 63.4-195.1 151.5-301.9 284.6-114.3 142.4-180.5 272.8-209.1 411.6-23.2 112.9-26.4 239.7-8.9 353 9.7 62.8 28 126.3 49.9 172.6 3 6.3 5.2 11.4 5 11.4-.2 0-3.5-3.7-7.3-8.3-13.8-16.4-30.3-42.6-33.7-53.7-2-6.4-4-8.9-5.5-7.4-1.4 1.4 31.2 93.4 49.4 139.9 18.2 46.2 38.9 72.9 89.6 115.1 29.3 24.4 38.6 33.1 88.3 82.2 79.7 78.7 99.3 95.7 147.7 127.4 104 68.4 214 111.7 335.6 132.2 85 14.3 181.2 15.8 271.4 4l4.5-.6-3.5 2.3c-6.7 4.3-25.6 12.7-37.5 16.8-21.6 7.3-48.2 13.2-92.5 20.6-42.5 7.1-76.5 13.8-78.3 15.5-3.2 3 111.4 4.7 147.8 2.2 138.5-9.6 254.2-41.2 344-94 30.5-18 51.8-34.5 72.9-56.5 8.8-9.3 18.6-18.9 21.6-21.2 5.1-3.9 17.8-11 18.5-10.3.9.9-21.3 28.6-30.2 37.9-9.1 9.5-12.7 14.9-10.9 16.6.7.8 15.9-8.3 37.1-22.2 101-66.1 178.8-151.2 233-254.9 26.8-51.2 45.4-100.9 64.6-172.6l1.2-4.5 1.3 6.4c3.3 15.3 4.5 35 5.1 81.3.5 36.6.9 46.6 1.8 45.8.7-.6 2.7-3.9 4.4-7.5 7.3-14.8 11.8-33 16.5-66.5 16-114.3 15.1-221.1-2.5-292.8-4.1-16.7-7.7-26.7-16.6-45.7-4.1-8.8-11.7-25.3-16.8-36.6-21.2-47.2-38.3-72.4-89-132-10.4-12.3-23.3-27.7-28.7-34.2l-9.6-11.9 2.8-6.2c1.5-3.3 10.9-23.7 21-45.1 38.9-83.3 58.3-128.1 73.6-170.5 2.1-5.8 4.5-11.3 5.3-12.4.9-1 6.3-5 12-8.9 13-8.7 18.4-13.6 23.2-21.1 8.3-12.6 10.4-23.4 11.9-59.1 1.6-41.8 3.1-47.3 22-86.5 12.1-25.1 14.8-31.6 17-40.7l1.2-5.2 12.1 10.2c70.2 58.9 130.5 126.4 178.9 200.2 74.8 114 124.8 251.8 140.8 388.1 9.8 84.2 8.4 174.8-4.1 263.4-21.8 154.5-74.1 303.2-148 420.9-55.4 88.2-127.4 166-212.9 230.2-87.8 65.9-195.6 120-311.5 156.2-127.1 39.8-259 60.9-417 66.8-29.7 1.1-145.4.6-158.5-.6-5.5-.6-5.5-.6-2.7 1 12.3 7.1 58.4 23.4 85.7 30.4 59.7 15.3 128.9 25.2 228.5 32.6 32.2 2.4 35.4 2.8 40.1 5.1 10.4 5.1 21.6 5.3 57.2 1.4 18-2 42-2.7 39.2-1.1-2.2 1.2-29.3 7.6-45 10.5-43.2 8.1-83.8 11.6-135 11.6-113.7 0-235.2-20.2-391.5-65.2-120.5-34.6-218.9-71.1-304.4-112.9-14.5-7.1-26.5-12.9-26.7-12.9-1.4 0 0 5.3 2.2 8.5 7.5 11.3 65.2 58 101.6 82.3 32.2 21.4 38.9 25.2 108.8 60.5 101.7 51.4 140.7 68.7 195 86.8 101.2 33.6 208.3 53.2 323.2 59 45.7 2.3 125 .4 171.3-4.1 123.3-12.1 250.2-45.5 363.5-95.5 184.3-81.5 348.6-213.2 484-388.2 6.9-8.9 12.6-16 12.7-15.9.1.1-1.4 6.2-3.3 13.6-6.5 24.9-15.9 75.7-17.9 97l-.7 6.5 2.5-3c3.4-4 24.2-36.7 34-53.5 44.9-76.3 83.2-163.7 114.2-260.6 26.6-82.8 51.2-184.9 66.5-275.9 34.6-206 16.9-438.8-46.6-611.1-7.1-19.4-17.8-45.4-22.3-54.1-3-6.1-2.6-6.4 2-1.3 19.1 21.3 30.5 37.2 57.3 79.2 21.8 34.4 41.6 63.1 41.6 60.5 0-.3-2.2-7.9-4.9-16.9-23.6-77.7-63.6-157.1-119.7-237.5-24.2-34.8-48.6-66.3-103.9-134.3-9.1-11.3-21.7-26.8-28-34.5-15.9-19.6-26.2-30.6-47.5-50.6-10.2-9.6-33.4-31.6-51.7-49-80.7-77-124.7-114.5-171.5-146.2l-11.5-7.9 3.9-12.6c30.5-98.8 65.4-243.6 86.3-358.6 2-10.9 6.1-31.2 9.1-45 15.6-71.7 17-104.2 5.4-124.4-6.4-11-20.2-16.4-33.8-13.2zm-127.6 253.2c-71.8 143.1-89.3 178.6-110.8 224.8-39 83.9-69.5 157.4-94.6 228-8 22.4-24.5 71.9-25.8 77.3-.4 1.6-1.2 3.1-1.9 3.4-.7.2-6.6-2.5-13.2-6.1-6.5-3.7-13.3-7.2-15-7.8-1.8-.7-3.3-1.6-3.3-2 0-1.7 13.4-40.8 22.2-64.8 26.2-71.5 58-143.6 97.2-220.5 40.7-79.7 74.8-139.9 164.6-290.5 49.7-83.4 52.9-88.8 53.7-91.8.7-2.4.8-2.5 1.1-.6.2 1.4-28.2 58.9-74.2 150.6zM1412.5 597c94.4 4.5 183.2 21.3 269.5 50.9 9.6 3.3 19.2 6.7 21.2 7.5l3.7 1.6-4 9.6c-2.2 5.2-10.9 23.3-19.3 40.2-17.6 35.1-22.9 47.1-28.3 63.1l-3.8 11.4-11 9.2c-24.9 21-36.8 37.4-42.6 59-2 7.3-2.2 10.6-2.3 38l-.1 30-3.7 12.2c-5 16.3-10.4 29.9-25.1 62.4-19.9 43.9-49.8 122.8-59.8 157.6l-1.2 4.1-11.6.6c-66.8 3.5-104 7.7-152.1 17.1-128.9 25.4-223.7 76.3-275.2 148-19 26.4-23.8 40.6-34.8 102.5-5.4 30.7-11.4 56.6-16.1 69.4-1.6 4.4-5.8 13.2-9.3 19.6-8.9 16.1-10 19.5-10 31.5 0 8.4.7 12.7 4.2 27.2 2.4 9.4 4.5 20 4.9 23.5.8 9.1-1.6 17.3-8.7 29.3-3.2 5.5-6.6 12.5-7.4 15.5-2.3 8.1-3.8 27.1-3 38 .8 12 2.6 17.3 10.7 30.7 10.8 18 12.6 26.5 8.7 41.7-6.8 26.5-33.2 58.7-58.5 71.2-4.9 2.4-13.5 5.6-19 7.1-9.2 2.5-11.6 2.7-30 2.7-17 0-21.3-.3-29.1-2.1-19.7-4.6-33.9-11.9-44.9-22.8-12-12-15.8-22.1-15.7-41.5.1-20.6 5.5-34 24.7-61 12.5-17.5 19.1-27.8 18.3-28.6-.9-.8-13.5 4.3-22.5 9.1-9.3 4.9-20.8 13.3-26.8 19.4-4.4 4.6-5.7 4.9-8.5 2.1-4.6-4.6-8.1-2.5-29.9 18.5-36.6 35.4-54.5 69.9-58.7 113.2-.3 4-.9 7.3-1.2 7.3-.9 0-20.1-14-30.5-22.2-86.1-68.3-142.6-155.6-168.1-259.8-11.6-47.2-16-86-16.1-140.9v-34.3l-3.1 6.8c-8.1 17.8-12.3 50.1-12.5 96.4 0 12.4-.4 23.4-.9 24.5-.5 1.1-.9 1.4-.9.7-.1-.7-1.2-7.9-2.6-16-5.3-31.6-6-41.9-6-84.7.1-42.7.7-52.7 6.1-87.5 17.3-112.7 69.7-234.1 147.8-342.5 78.5-108.9 178.1-199.2 292.1-264.7 23.5-13.6 70-36.8 94-47.1 97.7-41.7 196.8-65.9 299.5-73.2 36.1-2.5 76-3.1 109.5-1.5zm-738.7 61.2c-4.7 6.7-32.1 33.1-58.8 56.7-31.2 27.7-60.8 56.9-72.6 71.7-8.3 10.4-18.7 25.7-24.4 35.7l-3.3 5.9 2.9-1.5c1.6-.8 7.9-5.9 13.9-11.2 12-10.7 19.4-15.8 25.7-18.1 7.5-2.6 9.7-1.2 7.9 5.3-1.1 3.8-.6 4.5 2.6 3.2 3-1.1 3.7-2.4-9.9 17.2-15.5 22.4-26.8 41.1-35.5 58.8-7.2 14.6-7.5 15.5-5.8 16.7 2.4 1.8 7.4 1.7 15-.1 3.3-.8 6.6-1.5 7.3-1.5 1.8 0 1.5 3.2-.8 9.1-2.8 6.9-2.3 9.4 1 5.6 2.5-2.9 6.6-3.8 5.6-1.2-13.6 35.7-29.1 64.7-65.6 123-49.1 78.5-55.5 91-99.3 196-15.7 37.6-23.6 55.4-23.7 53.5 0-2.1 2.6-17 6.1-35 18.6-94.5 58.4-194.6 117.1-294.9 4.3-7.4 7.6-13.6 7.3-13.9-1-1-9.7 3.1-14.3 6.7-2.6 2.1-8.6 8.2-13.4 13.7-4.8 5.4-10.9 11.5-13.5 13.6-5.4 4-12 7.5-12.8 6.6-.9-.8 1.5-13.5 3.6-19.7 1.1-3 1.7-5.6 1.5-5.9-.7-.6-9.3 5.5-18.1 12.9-31.7 26.6-59.4 78.4-75.4 140.9-2.2 8.5-4 15-4.1 14.3 0-.7.9-7.6 2-15.5C357.3 1000 402.2 898.1 475.2 805c15-19.2 16.4-20.7 17.9-19.3 1.1 1.1.9 2.1-.8 5.5-1.1 2.4-2.4 5.8-2.7 7.6-.7 3-.6 3.2 1.9 3.2 3.3 0 9-2.4 13.2-5.6 1.9-1.4 7-7.3 11.6-13.2C543.9 747.3 604.2 697 657 666c6.9-4 13.9-8.2 15.5-9.2 4-2.4 4-2.3 1.3 1.4zm1009.7 168.4c26.2 6.8 57.3 21.6 87.5 41.7 10.3 6.9 33.6 24 39.5 29.2l3 2.6-7-.7c-3.8-.3-13.7-1.7-22-3-29.2-4.6-44.5-5.2-56.9-2.4-9.3 2.1-32.8 31.4-49.4 61.6-23.6 42.9-40.2 94.6-64.3 200.4-3.4 15.1-6.4 27.7-6.6 27.9-1.1 1.5-13.7-3.3-30.4-11.5-10.7-5.2-22.5-10.4-26.4-11.6-3.8-1.1-7.1-2.2-7.3-2.3-.8-.6 20.7-71.2 33.5-110 19.2-58.5 30.2-87.2 46.3-120.5 6.5-13.5 12.9-27.7 14.3-31.7 1.5-4.1 3.7-14.6 5.2-24.5 3.2-21.2 4.9-28.7 8.1-35.8 6.2-13.5 11.4-15 32.9-9.4zm-246.7 410c24.2 5 43.9 16 63.2 35.4 15.7 15.7 27.3 33.7 33.5 52l2.2 6.5 1.9-3.5c2.8-5.2 2.5-19.2-.8-34.5-1.5-6.6-2.9-14.9-3.3-18.5l-.7-6.5 4.2 4c13.6 13.1 26.1 36.3 34.3 63.5 6.9 22.7 11.6 48 16.7 88.9 1.6 13.5 3.2 24.6 3.4 24.8.6.7 3.6-11.3 5.5-22.8 2-11.8 4-37.2 4.2-53.4l.1-9 3.3 7c5.2 11 7 20 7 35-.1 18.7-2.2 27.5-16.6 68.3-12.4 35.4-15.1 46.3-15.1 62.7 0 16.9 4.6 30.3 14.8 43.6 2.5 3.3 4.6 5.9 4.7 5.9.1 0 .2-8.4.3-18.8.1-14.9.5-20.8 2.2-28.9 1.1-5.7 2.5-11 2.9-11.8.7-1.2 2.7 1 8.4 9.2 35.9 51.6 59.6 104.4 68 151.8 3.1 17.3 3.4 52.8.6 67-3 14.9-7.5 28.3-14 41.5l-6.2 12.5-.7-21.5c-.8-26.9-3.7-45.8-8.2-53.9l-1.3-2.4-1.8 2.9c-7.9 12.7-17.4 26.1-23.1 32.7-20.8 23.4-46.9 34.4-79.4 33.5l-10.5-.3 13.5-4.9c23.2-8.3 33.9-15.2 40.1-26 4.1-7.3 3.9-8-2.1-7.2-9 1.2-43.1 7.6-57 10.7-70.8 15.7-110.5 39.8-129.5 78.4-5.6 11.2-10.5 26.2-8.2 24.9 2.5-1.5 9.5-7.2 19.1-15.7 5.5-4.9 12.9-11.1 16.5-13.8 13.1-9.9 33.4-18 45-17.9l4.6.1-3.3 1.4c-6.8 3-17.7 10.9-24.7 18-13.3 13.4-22.1 28.7-39 67-14.7 33.5-23.5 49.4-33.9 61.2l-4 4.6 3.9-.7c16.5-3 35.7-19.7 45.7-39.5 4.2-8.4 4.8-7.3 2.3 4.2-3.3 15.5-15 30.5-33.1 42.4-9.8 6.4-47.2 25.8-48.1 24.9-1-1 1.8-10.1 7.1-22.6 6.2-14.5 9.1-23.1 10.5-31.4 1.2-6.5 1.4-17.8.5-21.3-.6-2.1-.8-2.1-3.3-.8-1.4.7-8 5.7-14.6 11s-14.5 11.1-17.5 12.9c-5.6 3.3-14.8 7.2-15.4 6.5-.1-.2 1-7.2 2.6-15.4 3.7-19.9 4.8-42.1 2.4-51.4-1.7-6.7-5.3-14.2-7.1-14.8-.5-.1-2.8 4.1-5 9.4-12.4 30-31.3 52.6-55 65.8-6.3 3.5-19.5 8.9-20.2 8.2-.2-.2 1.5-3.5 3.8-7.3 12.7-20.8 22.7-48.5 36.9-102.4 8-30.5 15.8-56.4 20.7-69.5 5.4-14.2 14.6-33.2 20.3-41.7 2.2-3.3 4-6.2 4-6.4 0-.9-12.9 6.2-20 10.9-9.8 6.6-26.8 23.8-35 35.4-11.2 16-17.9 27.7-37.6 66.5-27.8 54.7-39.7 71.6-65.9 93.6-36.6 30.7-79.3 44.5-133 42.9-38.5-1.1-68.9-8.7-101-25.1l-14-7.1 7.5-.7c35-3.4 47.4-6.7 56.9-15.4 3.7-3.3 7.8-9.2 6.9-9.8-.2-.1-6.1-2-13.3-4.1-44.9-13.2-71.6-24.3-92.9-38.5-5.9-4-10.6-7.4-10.4-7.6.2-.1 3.7.5 7.8 1.6 22.2 5.6 57.6 7.2 80.7 3.7 53.9-8.4 91-34.3 102.9-71.9.9-3.2 1.5-6 1.2-6.3-.3-.3-3.5 1.6-7.2 4.4-13 9.9-27.4 17.1-45.8 22.9-10.1 3.3-29.1 7.6-30.8 7-.6-.2 1.7-2.3 5-4.7 12.6-9.2 24.4-23.2 44.9-53.1 14.9-21.7 14.5-21.4 13.7-12-.3 4.1-.9 8.8-1.2 10.3l-.7 2.9 3.9-2c5.2-2.7 8.8-6.6 11.6-12.7 2-4.4 2.3-6.5 2.3-18.5 0-11-.5-15-2.3-21.5-4.3-14.8-12.9-31.3-19.6-37.4l-2.6-2.4v-26.1c0-29.9.6-33.8 6.7-43.8 7-11.7 6.7-20.6-1.4-43.9-3.8-11.1-4.7-15-5.1-22.5-.5-11.4 1.2-15.7 12-30.2 11-14.6 13.3-22.6 19.8-67.7 4.6-31.5 6.3-39.3 12.1-53.8 24.6-61.7 72.9-104.8 153.9-137.5 15.8-6.4 44-16.4 45-16 .5.2-2.3 4.6-6.2 9.8-32.6 44.3-49 78.2-55.2 114-2 11.3-3.1 35.9-1.9 41.4l.8 3.8 2.9-7.3c3.6-9.6 12.3-26.2 19.3-36.9 20.2-31 55.6-66.3 91.3-91.1 23.9-16.7 62.5-39.3 74.1-43.5 15.3-5.5 27.9-6.6 41.7-3.8zm349.6 127.5c31.2 36.9 51.5 80.8 59.6 129 3.7 21.4 3.8 62.6.3 80-.4 2.2-2-4.2-5.8-22.8-15.5-76.6-38-141.7-65.7-190.3-3.6-6.3-7.6-13.3-8.8-15.5-2.1-3.6-1.6-3.3 5.4 3.5 4.3 4.1 11 11.4 15 16.1zm553.5 384c.2 29.8-3.8 59.3-15.3 112.9-3.6 16.7-6.4 30.6-6.1 30.8.2.2 1.7.1 3.4-.3 4.6-1 12.1-7 17.5-14.1 2.7-3.6 5.1-6.2 5.3-6 .7.7-6.2 26.1-11.1 40.8-13.6 41.6-36.1 87.4-62 126.8-10.3 15.5-31.1 44-32.2 44-.3 0 1-2.8 2.9-6.3 37-66.9 51.8-104.4 58.1-147 .7-5 1.1-9.8.9-10.4-.7-1.8-2.8-1.6-4.3.3-1.8 2.1-4.8 3.6-5.9 2.9-.5-.3.8-5.8 3-12.3 16.3-48.1 34.4-122.4 42.1-172.7 2.1-14 2.3-14.7 3-10 .3 2.7.7 12 .7 20.6zm-1563.5 74.6c7.1 20.3 18.8 41.5 33.1 60.3 8 10.5 32.7 36.1 44 45.8l6 5.1-9.5-2.1c-45.6-9.7-79.5-34.4-94.1-68.5l-2-4.8 2.3 2.1c3.1 2.9 6.2 4.4 8.9 4.4h2.2l-.9-16.8c-1.1-21.2-1.2-49.8 0-53.7.8-2.7 1.1-2 3.6 7.5 1.6 5.8 4.4 15.1 6.4 20.7zm1584.3 220.5c-26.1 78.1-69.4 150-151.2 250.8l-11.4 14-1.5-5.4c-.9-3-1.6-7-1.6-8.9v-3.5l-7.2 2c-36.4 10.2-60.9 23.9-114.3 63.5-28.1 20.8-43.5 31.2-59.1 39.8-10.6 5.8-28.8 14.1-35.3 16-2.4.7-2.4.7.6-3.1 5.9-7.4 51.9-52.1 87.3-84.9 19.5-18.1 46.2-43.5 59.2-56.4 18.7-18.4 23.9-23 24.4-21.7.4 1-.3 3.9-1.6 6.7-1.3 2.7-2.1 5.2-1.8 5.5 1 .9 6.1-2.2 9.3-5.6 3.6-3.8 8.2-6 12.8-6 2.8 0 5.8-2 18.8-12.6 84.1-68.7 139.2-132.6 173-200.6 3.5-7 6.5-12.6 6.7-12.4.2.2-3 10.5-7.1 22.8z"/><path d="M1171.9 1316.8c-20.9 17.4-39.9 42.2-53.8 70.3-21.4 43.1-24.6 82.6-9.5 116.7 1.3 3 2.7 5.2 3.1 4.8.4-.4 1.7-8.4 2.9-17.9 8.1-64.4 24.4-114.2 49.5-151.7 4.3-6.3 10.3-14.3 13.3-17.8 6.3-7.1 8-9.8 7.1-11.2-1.2-2-3.3-.8-12.6 6.8zm302.6 32.9c1.8 4.5 5.4 20.9 7.1 31.8 2.3 15 2.6 56.5.6 69-4.7 28.6-13 45.4-25.8 52.2-11.3 6-22.4 8.2-56.5 11.3-30 2.7-66.2 9-84.4 14.7-28.4 8.9-43.1 26.2-49.1 57.9-2.2 12-1.5 33.6 1.5 44.9 6.8 25.5 23 44.7 43.6 51.5 6.9 2.3 22.2 4.2 24.3 3.1 2.2-1.2-2.8-7.3-9.8-11.7-7.8-4.9-13-9.6-13-11.8 0-1.5.3-1.5 3.8 0 10.5 4.7 21.8 8.5 31.2 10.5 9 2 13.5 2.3 31.5 2.4 24.2 0 33.7-1.2 64.5-8.2 10.7-2.4 28.3-6.1 39-8.3 31.1-6.3 39.2-9.7 45.4-19.3 5.5-8.3 7.1-15.1 7.1-30.7 0-14.6-1.6-24.5-6.2-38.5-3.8-11.6-7.2-17.9-15.2-27.8-12-14.9-12.7-17.7-8.5-34.2 2.6-10.4 2.8-12.3 2.8-33.5 0-12.4-.5-27.5-1.2-33.5-4.1-35.1-14.5-67.3-28.3-87.6-3.9-5.8-5.8-7.6-4.4-4.2zm-361 191.4c-20.4 2.7-35.6 9.2-46.9 19.9-11.8 11.3-15.6 20.3-15.6 37.6 0 24 7.5 47.2 18.6 57.3 19 17.4 58.2 23 80.7 11.4 3.9-2 10.6-8.1 12.2-11.3.8-1.5 2.1-6.7 3-11.6 3.5-19.6 5-23.6 13.2-35.2 6.4-9 7.3-11.8 7.3-22.2 0-22.7-11.8-37.5-35.2-44-8.6-2.4-26.9-3.4-37.3-1.9zm88 69.3c-.5.3-2.7.7-4.7 1.1-3.5.5-3.9 1.1-11.2 14.4-27.1 49.7-35.6 77.8-31.5 104.3 1.9 12.2 9 29.8 12.1 29.8 2.5 0 8.3-5.7 14.8-14.5 7-9.5 10.2-12.5 13.2-12.5 2.9 0 4.3 9.5 4.3 28.7l-.1 17.2 2.6-.6c1.4-.3 5.5-1.8 9.2-3.3 21.6-8.9 37.4-31.2 43.9-62 2.9-13.7 3.2-38.9.6-52.5-2.6-13.3-7.2-26.8-12.5-37l-4.8-9-6.4-1.8c-5.9-1.6-27.1-3.3-29.5-2.3zM1085 1745.1c-1.9 7.9-.6 17.6 4.6 35.4 4.2 14.4 4.7 17.1 4.8 26.6l.1 10.7 2.7-1.4c7.3-3.8 14.9-15.7 17.3-27.1 3.3-15.7.8-29.4-7.2-40-3-3.9-13.4-9.3-17.9-9.3-3 0-3.3.3-4.4 5.1zm58.6 73.7c-21.1 33.8-33 47.5-49.6 56.5-9 4.9-19.3 8.2-42 13.3-29.4 6.7-44.5 12.2-57.8 21.2l-4.3 2.9 4.7.7c7.5 1 56.2.7 67.5-.4 22.8-2.3 44.4-8.4 57.6-16.1 3.2-1.9 9.5-7 14-11.5 6.5-6.5 8.9-9.8 12.3-16.7 5.4-11.2 8-23.6 8-38.5 0-11.1-.1-11.3-2.7-13.7-1.6-1.3-3.2-2.5-3.8-2.5-.5 0-2.3 2.1-3.9 4.8zM0 3251.5v214.6l88.3-.3c80.2-.3 89.1-.5 97.7-2.2 45.1-8.6 72-31.5 83.5-71.2 6.2-21.3 6-17.1 6-140.9 0-123.8.2-119.5-6-141-10-34.7-33.9-58.2-69-67.8-18.6-5.1-17.2-5-111.7-5.4l-88.8-.4v214.6zm168.6-119.7c6.3 2.9 9.6 6.2 12.6 12.7l2.3 5v204l-2.3 5.1c-2.9 6.3-6.2 9.6-12.7 12.6-4.9 2.2-5.9 2.3-40.7 2.6l-35.8.3v-245.2l35.8.3c34.9.3 35.8.4 40.8 2.6zM306 3251.5V3466h276v-92H398v-76l76.8-.2 76.7-.3v-92l-76.7-.3-76.8-.2v-76h184v-92H306v214.5zm338.1-2.6c-24.9 116.5-45.6 213-45.8 214.5l-.5 2.6h91.9l6.4-30.3 6.5-30.2 48.1-.3c45.2-.2 48.2-.1 48.7 1.5.3 1 2.8 12.6 5.6 25.8 2.8 13.2 5.6 26.1 6.1 28.7l1.1 4.8h45.9c25.2 0 45.9-.3 45.9-.8-.1-.4-20.7-96.8-45.9-214.2l-45.8-213.5-61.4-.3-61.4-.2-45.4 211.9zm121.3-1.4c7.5 35.2 13.6 64.3 13.6 64.7 0 .5-12.6.8-28 .8-21.7 0-28-.3-28-1.3 0-2.9 27.5-129.5 28.1-128.9.3.4 6.7 29.5 14.3 64.7zm153.6 4v214.6l88.3-.4c96-.3 94.6-.3 115.2-6.2 35.4-10.3 58.4-34.7 67.8-72.1 4.7-18.7 4.8-22.6 4.5-142.4-.4-111.3-.4-112.6-2.6-122-11.3-49.4-37.5-74.5-87.7-83.7-7.9-1.5-20.1-1.7-97.2-2l-88.3-.4v214.6zm169-119.9c5.7 2.7 9.7 6.7 12.4 12.4 2.1 4.5 2.1 4.9 2.1 107.5s0 103-2.1 107.5c-2.7 5.7-6.7 9.7-12.4 12.4-4.3 2-6.4 2.1-40.7 2.4l-36.3.3v-245.2l36.3.3c34.3.3 36.4.4 40.7 2.4zm245 119.9v214.6l88.8-.4c95.5-.4 92.9-.3 113.2-5.8 9.7-2.7 24.5-9.7 32.4-15.3 7-5 16.7-14.9 21.5-21.9 5.3-7.8 11.9-22.6 14.5-32.8 4.8-18.4 5.1-22.3 5.1-61.9 0-32.1-.3-38.9-1.9-47.5-3.1-17.3-8.5-31.8-16.7-45.7l-2.2-3.7 3.1-6.8c9-19.8 13-44.4 11.9-72.8-1-24.3-5.4-44-13.5-60-13.5-27-37.4-44.2-70.7-50.9-16.3-3.2-26.5-3.6-105.7-3.6H1333v214.5zm159.1-120.9c12.3 3.5 18.2 12.5 18.3 27.9.1 12.1-1.6 17.7-7.3 23.6-7.3 7.5-9.7 7.9-46.8 7.9H1425v-61h30.7c25.2 0 31.7.3 36.4 1.6zm9.5 154.2c6.3 2.9 9.6 6.2 12.6 12.7 2.2 4.8 2.3 6 2.3 31 0 25.4-.1 26.1-2.4 30.8-3.2 6.4-8.9 11.1-16 13.1-4.8 1.3-11.4 1.6-39.4 1.6H1425v-92.1l35.8.3c34.9.3 35.8.4 40.8 2.6zm138.4-33.3V3466h92v-153.1l35.8.3 35.7.3 5.6 2.6c6.1 2.9 9.9 7.1 12.6 14 1.6 4 1.8 10.5 2.1 70.1l.3 65.8h91.9v-62.3c0-62.9-.7-80.3-3.6-95.7-2.1-11.4-6.6-25-11.1-33.8l-3.8-7.3 4.7-9.7c10.7-22 13.2-37.9 13.2-82.2 0-44.4-2.5-60.2-13.3-82.5-11.4-23.5-29.1-38.7-55.5-47.6-22.1-7.4-19.7-7.3-118.3-7.7l-88.3-.3v214.6zm169.3-119.2c11.3 5.6 13.7 11.5 14.4 36.2 1.1 35.9-3.1 46.5-20.2 51-4.7 1.2-12.4 1.5-38.7 1.5H1732v-92.1l35.8.3 35.7.3 5.8 2.8zm137 69.4c.4 179.2 0 168.1 5.8 189.2 9.2 34.1 30.4 56.4 63.9 67.5 19.3 6.4 26 7.1 67 7.1 38.8 0 45.1-.5 63-5.1 5.2-1.4 13.7-4.5 18.9-6.9 30.4-14.4 47.2-38.3 54.9-78 1.4-7 1.6-28.8 1.9-173.3l.4-165.2H2130v156.2c0 177.3.6 164.3-8 172.9-7.2 7.2-12.1 8.1-40.5 7.7-21.5-.3-23.3-.4-28.1-2.6-6.3-2.9-9.6-6.2-12.6-12.7l-2.3-5-.3-158.3-.2-158.2h-92.1l.4 164.7zm410.2-164.1c-44.2 4.3-74.6 22.6-90 53.9-5.1 10.5-7.7 18.2-10.8 32-2 9.2-2.2 12.8-2.2 43 0 30.3.2 33.9 2.2 44.1 10.2 50.1 39.4 77.4 91 84.9 6.5.9 23 1.9 41.3 2.3 33.1.9 33.8 1 40.3 7.1 4.9 4.4 6.8 9.6 7.9 20.7 1.4 13.9 0 28.5-3.3 35.1-3 5.8-9.7 10.7-16.9 12.2-7.5 1.6-45.3 1.4-51.8-.2-7.2-1.9-12.4-5.9-15.8-12-2.7-4.9-2.9-6-3.2-18.9l-.4-13.8h-92.1l.6 21.3c.4 15.9 1.1 23.6 2.6 30.7 10.5 48.9 37.7 74.8 88.1 83.8 14.5 2.6 79.1 2.5 94-.2 29.3-5.1 52.2-17.5 66.5-35.8 6.8-8.7 14.7-24.4 17.9-36 9-31.7 8.3-87.6-1.5-117.3-10.7-32.3-34.4-54.2-68.4-63.3-14.8-4-26.9-5.2-57-5.8-33.5-.7-36.3-1.2-43.1-8-6.5-6.5-7.6-11.5-7.2-32.7.3-16.8.4-17.3 3.2-22.5 3.5-6.3 9.6-10.6 17.2-12.2 3.5-.7 13.9-1 28.2-.8 22.6.3 22.7.3 28.5 3.1 10.3 5.1 13.3 11.5 14.3 30.3l.7 12.4h92l-.7-17.3c-1.2-30.3-4.8-47.3-13.6-65.3-11.6-23.7-29.2-38.8-55.5-47.5-19.2-6.4-25.7-7.2-64.5-7.4-19-.2-36.3-.1-38.5.1zm202.5 213.9V3466h92v-168h92v168h92v-429h-92v168h-92v-168h-92v214.5z"/></symbol><symbol viewBox="0 0 426.667 426.667" id="plus" xmlns="http://www.w3.org/2000/svg"><path d="M405.332 192H234.668V21.332C234.668 9.559 225.109 0 213.332 0 201.559 0 192 9.559 192 21.332V192H21.332C9.559 192 0 201.559 0 213.332c0 11.777 9.559 21.336 21.332 21.336H192v170.664c0 11.777 9.559 21.336 21.332 21.336 11.777 0 21.336-9.559 21.336-21.336V234.668h170.664c11.777 0 21.336-9.559 21.336-21.336 0-11.773-9.559-21.332-21.336-21.332zm0 0"/></symbol><symbol viewBox="0 0 512 512" id="question" xmlns="http://www.w3.org/2000/svg"><path d="M256 0C114.836 0 0 114.836 0 256s114.836 256 256 256 256-114.836 256-256S397.164 0 256 0zm0 405.332c-11.777 0-21.332-9.555-21.332-21.332s9.555-21.332 21.332-21.332 21.332 9.555 21.332 21.332-9.555 21.332-21.332 21.332zm33.77-135.637c-7.551 3.477-12.438 11.094-12.438 19.395v9.578c0 11.773-9.535 21.332-21.332 21.332s-21.332-9.559-21.332-21.332v-9.578c0-24.899 14.633-47.723 37.227-58.156 21.738-10.004 37.437-36.567 37.437-49.602C309.332 151.937 285.418 128 256 128s-53.332 23.937-53.332 53.332c0 11.777-9.54 21.336-21.336 21.336S160 193.109 160 181.332c0-52.926 43.07-96 96-96s96 43.074 96 96c0 28.824-25.004 71.191-62.23 88.363zm0 0"/></symbol><symbol viewBox="0 0 314.154 314.154" id="refresh" xmlns="http://www.w3.org/2000/svg"><path d="M307.475 141.686c-6.893-4.598-16.207-2.736-20.802 4.157l-.446.669c-5.426-74.107-67.45-132.745-142.918-132.745C64.288 13.768 0 78.056 0 157.077s64.288 143.309 143.309 143.309c11.046 0 20-8.954 20-20s-8.954-20-20-20C86.344 260.385 40 214.041 40 157.077S86.344 53.768 143.309 53.768c52.798 0 96.465 39.815 102.571 90.996-4.813-5.991-13.486-7.422-20-3.078-6.893 4.596-8.754 13.91-4.158 20.802l29.702 44.541c3.505 5.256 9.208 8.394 15.255 8.394 6.047 0 11.749-3.139 15.252-8.394l29.702-44.541c4.595-6.893 2.734-16.206-4.158-20.802z"/></symbol><symbol viewBox="0 0 409.6 409.6" id="remove" xmlns="http://www.w3.org/2000/svg"><path d="M392.533 187.733H17.067C7.641 187.733 0 195.374 0 204.8s7.641 17.067 17.067 17.067h375.467c9.426 0 17.067-7.641 17.067-17.067s-7.642-17.067-17.068-17.067z"/></symbol><symbol viewBox="0 0 1630 1984" id="shield" xmlns="http://www.w3.org/2000/svg"><path d="M802 1.9c-3 1-43.5 18.8-90 39.6C611.3 86.4 223.4 258.8 100.7 313c-60.6 26.8-88 39.4-90.7 41.7-2.1 1.9-5.1 5.8-6.6 8.9l-2.7 5.5.2 263.2c.2 262.8.7 313.2 3.6 352.4 13.3 179.1 67.2 349.4 159.3 503.3 43.6 72.8 105 153.7 162.6 213.9C445.9 1827 596.2 1920.7 761 1973c29.6 9.3 35.2 10.4 54 10.5 18.5 0 23.1-.8 48.9-8.7 75.2-23 154.3-58.3 223.1-99.6 129.4-77.7 242.9-185.9 338.2-322.7 107.7-154.5 176.4-337.7 196.7-524.5 7-63.9 7.2-75.1 7.4-385l.2-274.5-3-5.4c-3.6-6.5-8.2-10-19.1-14.5-7.6-3.2-83.5-36.6-213.9-94.4C1241.8 187.1 993.8 76.6 881 26c-27.2-12.3-52.1-23.1-55.3-24.1-7.3-2.4-16.5-2.3-23.7 0zm23 198.6c3.6 1.2 52.6 22.8 109 48 123.6 55.2 334.1 148.6 431.5 191.5 39.1 17.2 72.6 32.5 74.5 34 1.9 1.4 4.5 4.6 5.7 7l2.3 4.3v244.2c0 134.3-.3 248.3-.6 253.3l-.7 9.2H816.3l-.7-3.8c-.3-2-.6-180.9-.6-397.6 0-374.7.1-393.8 1.8-393.1.9.4 4.6 1.7 8.2 3zm-16.7 792.1l7.7.7v401.8c0 221.1-.3 401.9-.6 401.9-3.7 0-54.7-18.4-76.8-27.7-145.6-61.3-278-172.2-378.2-316.8-84.8-122.3-143.6-263.7-166.9-401.3-2.6-15.7-7.5-52.4-7.5-56.7V992h307.3c169.1 0 310.8.3 315 .6z"/></symbol><symbol viewBox="0 0 600 607" id="small-logo" xmlns="http://www.w3.org/2000/svg"><path d="M439.1 4.8c-6.6 6.9-36.8 54.5-51 80.4l-4.2 7.7-6.7-2.6c-16.9-6.6-41.5-12-64.1-14.3-14.5-1.4-40.4-1.2-54.6.5-6.5.8-12.1 1.2-12.4 1-.2-.3.4-.5 1.4-.5 1 0 1.6-.3 1.3-.6-.4-.3-5.4.4-11.3 1.6-5.9 1.2-10.9 2-11.1 1.8-.2-.3 7.2-2.9 16.4-5.8s15.9-5.5 14.9-5.8c-3.1-.7-18.8 2.9-33.2 7.6-21.5 7-62.2 28.1-81 41.9-11.6 8.6-37.4 34.4-49.7 49.8-35.5 44.2-49.8 82.3-49.8 132 0 26 3.3 44 12.5 68 1.2 2.9-2.9-2.3-6-7.7-1.4-2.4-2.5-4-2.5-3.7 0 2.6 12.7 34.4 15.4 38.4 1.9 2.9 7.4 8.8 12.2 13.1 4.9 4.3 15.8 14.7 24.4 23 8.5 8.2 18.5 17.1 22.2 19.8 21.6 15.2 47.7 26.2 74.3 31.2 8 1.5 14.8 1.9 34.2 1.9 13.2 0 23.6.3 23 .8-2.6 1.7-14.3 4.7-25.9 6.8-6.7 1.1-13 2.5-13.8 3-2.1 1.2 27.5 1.1 38.5-.1 21.1-2.4 41.2-7.9 56-15.3 10.8-5.4 15.9-8.9 23.2-16 7.2-7 9.3-7.2 3.3-.3-2.2 2.6-4 5-4 5.2 0 1 7.4-3.8 16.6-10.8 24.2-18.1 41.5-42.8 51.2-72.8l3.7-11.5.7 4.5c.3 2.5.7 8.5.8 13.5.1 8.5.2 8.9 1.6 6.3 2.9-5.5 4.8-22.3 4.8-44.3 0-24-.8-28.6-7.5-43.7-5.3-11.8-10.5-19.9-20.7-32l-8.1-9.6 8.3-18.4c4.6-10 9.4-21.1 10.6-24.6 1.7-4.6 3.3-7.1 6.2-9.3 5.2-4.2 5.7-5.3 6.6-16.6.7-8.1 1.5-11.3 4.7-18.5 3.2-7.2 4.2-8.5 5.5-7.8 3.5 1.8 22.9 21.9 29.5 30.4 19.2 24.8 32 54 37.6 86.1 2.7 15.4 3.2 44.9 1 60.5-13.8 100.3-72.9 162.6-173 182.5-22.1 4.4-35.5 5.7-64.6 6.4l-28 .6 11 3.7c6.1 2 15.3 4.3 20.5 5.3 14.7 2.5 45.7 5.7 54 5.5 4.1-.1 7.2.1 6.9.4-.3.3-5.2 1.3-10.9 2.2-14.4 2.3-44.4 1.5-62-1.6-33.9-5.9-82.5-21.2-107-33.5-4-2-7.5-3.3-7.8-3-.9.8 7.7 8.3 18.7 16.3 12.3 8.9 50.9 28 68.1 33.6 27.8 9.1 48 12.1 81 12 26.3 0 38.3-1.4 59.9-6.9 53.3-13.5 103.3-46.2 138.4-90.6 3.4-4.3 6.2-7.7 6.3-7.6.1.1-.7 4.2-1.7 9.2-2.9 14.2-2.6 15.2 2.6 7 21.1-32.9 39.1-90 43.6-137.8 1.5-16.4.7-50.4-1.6-65.7-2.3-15.3-7.5-35.7-11.8-46.4-4.5-11.3-2.4-9.5 8.6 7.2 4.4 6.7 8.2 12.1 8.4 11.9.7-.8-6.1-18.6-10.8-27.8-11.6-23.3-37.6-56.8-61.8-79.8-16-15.3-27-24.8-35.3-30.9-2.7-1.9-4.8-3.9-4.8-4.5 0-.6 1.8-7.5 4-15.4 7.9-28.3 19-81.1 19-90.7 0-6.7-2.6-10.6-7.3-10.6-2.4 0-4.1 1.1-7.6 4.8zm-11.9 30.9c-1.5 3.2-7.3 14.8-12.8 25.8-22.8 45.1-33.1 69-44.9 104.3-.6 1.7-6.5-1.6-6.5-3.6 0-2.2 9.6-27.2 15.6-40.4 5.6-12.4 14.2-29.3 21.7-42.3 8.8-15.4 28.9-49.5 29.3-49.5.1 0-.9 2.6-2.4 5.7zM306 127c6.3.6 16.3 1.9 22.2 3 11.1 2.1 30.7 7.6 32.1 8.9.5.5-1.1 4.8-3.6 9.7-2.4 4.9-5 10.5-5.7 12.4-.7 1.9-3.5 5.7-6.1 8.5-5.8 6.1-6.9 8.7-6.9 17.3 0 7.3-1 10.3-10.4 33.2-3.1 7.4-6.3 15.8-7.2 18.7-1.7 6-1.3 5.8-16.6 6.8-28.3 1.8-55.2 11.6-70.1 25.5-9.6 9-12 13.7-15.2 29.5-1.4 7.1-3.7 15.4-5 18.3-2.8 6.2-2.9 7.4-1.3 15.2 1 5.3 1 6-1 9.2-2.9 4.7-3 14-.2 18.3 1.1 1.6 2 4.6 2 6.6 0 5-5.2 12.6-11.3 16.3-10.8 6.6-28.4 1.9-30.3-8.2-.9-4.5.8-9.7 5-15.7 2-2.7 3.4-5.1 3.1-5.3-.7-.8-4.6 1-7.5 3.4-1.6 1.4-3.4 2.3-4 1.9-1.5-.9-11.3 8.8-14.3 14.3-1.5 2.7-3.2 7.2-3.8 10-1.3 6.1-1.3 6.1-10.6-2.1-22.9-20.2-33.9-43.6-35-75.1-.7-16.4-2-16.2-3.8.4l-1.1 10.5-.9-8c-6.1-60.1 39.9-132 104.9-163.9C235.3 130.9 271.3 124 306 127zm-164 13.4c0 .2-5.5 5.3-12.3 11.4-6.7 6-14.2 13.7-16.5 17.1-2.4 3.4-4.1 6.1-3.9 6.1.2 0 2.1-1.4 4.2-3 6.8-5.4 8.5-3.4 3.4 4-7.1 10.5-8.9 16.1-4.6 14.4.9-.3 1.6.3 2 1.7.7 2.7-3.1 10.5-15.4 30.9-5.7 9.5-11.9 21.5-15.8 30.8-3.5 8.4-6.6 15-6.8 14.8-.8-.8 1.9-12 5.9-24.4 2.3-7.3 7.4-19.1 12.2-28.8 4.6-9 8-16.4 7.7-16.4-.4 0-2.5 1.8-4.6 4-4.5 4.6-5.9 5-5.3 1.5.4-2 .2-2.3-1.2-1.5-5 2.7-12 13.2-16.1 24.5l-1.9 5 .6-4.5c1-7.4 7.2-24.8 12.5-35 6.7-12.8 17-27 17.9-24.5.5 1.4 2.4 0 10.1-7.6 10.3-10.2 27.9-23.2 27.9-20.5zm224.5 39.1c5 2.4 10.6 5.7 12.5 7.4l3.5 3-8.5-.6-8.5-.6-3.7 4.1c-7.2 8-14.1 24.8-18.8 45.7-1.2 5.5-2.5 10.5-2.9 11.2-.8 1.4-13.1-3.6-13.1-5.4 0-2.7 11.5-36.4 15.6-45.6 3.3-7.5 6.4-17.8 6.4-21.3 0-.1.7-1 1.6-1.8 2.1-2.1 4.9-1.4 15.9 3.9zm-56.9 84.4c5 2.3 10.7 7.8 13.4 13.1 1.1 2.2 2.3 4 2.6 4 .4 0 .3-2.6-.1-5.8l-.7-5.7 2.2 2.1c3.1 3 6.8 14.1 8.2 24.5.7 4.9 1.6 8.9 1.9 8.9.4 0 1.1-3.5 1.5-7.8.5-5.3.9-7.1 1.5-5.7 1.6 4.1.8 10.1-2.6 20.6-1.9 6-3.5 11.8-3.5 12.9 0 2.7 3 10 4.2 10 .5 0 .7-.4.4-.9-1-1.5.6-10.2 1.7-9.8 2.1.7 10.8 17.4 13.4 25.5 2.2 7 2.5 9.5 2.1 17-.5 9.3-2.6 16-3.9 12.5-.4-1-.8-3.6-.8-5.8-.2-6.6-1.3-7-5.3-1.6-4.1 5.4-10.5 9.1-15.9 9.1h-3.4l4-1.9c4.1-1.8 7.2-4.7 6.2-5.7-.7-.8-15.6 2.3-22.3 4.6-7.5 2.6-13.9 7.3-16.9 12.4-3.5 6-3.1 7.4 1 3.7 3.7-3.2 7.4-5.3 11.4-6.6 1.8-.6 1.5.1-1.8 3-2.9 2.6-5.6 6.9-9.2 14.4-2.8 5.8-5.8 11.4-6.6 12.3-1.5 1.6-1.5 1.8 0 1.8 1 0 3.4-1.7 5.6-3.9 2.6-2.6 3.7-3.2 3.3-1.9-.7 2.8-5.2 6.9-11 10.1-5.8 3.1-6.6 2.3-3.6-3.4.8-1.7 1.4-4.6 1.2-6.5l-.3-3.5-4 3c-2.2 1.7-4.3 3.1-4.8 3.1-.4 0-.4-3.1-.1-6.9.4-4 .2-7.6-.4-8.6-.9-1.6-1.2-1.3-3.2 2.6-2.7 5.3-6.5 9.5-10.3 11.6-3.8 1.9-4.2 1.2-1.8-3.4 1.1-2.2 3.8-10.4 6.1-18.3 2.2-7.9 5.2-16.5 6.5-19.2 1.3-2.6 2-4.8 1.4-4.8-.6 0-3.4 2.4-6.2 5.2-3.7 3.7-7.2 9.1-11.7 17.8-7.5 14.3-13.6 21.2-22.7 25.6-8.1 3.9-22.9 4.6-33 1.6-3.7-1.2-7.7-2.8-8.8-3.6-1.9-1.5-1.8-1.5 1.8-1.6 4.5 0 11-2.5 10.5-4-.2-.6-4-2.3-8.5-3.9s-9.6-3.8-11.4-4.9l-3.3-2 8 .5c12.9.9 24.9-3.6 29.4-11 2.7-4.3 2.7-6.6.1-4.3-2.1 1.9-11.2 5.6-13.7 5.6-1.3 0-1-.5.8-1.9 1.4-1.1 4.2-4.5 6.4-7.6 3-4.5 4-5.3 4.5-3.9.5 1.6.8 1.5 2.3-.9 2.2-3.3 1.6-8.2-2-14.6-2.8-5.2-3.1-11.2-.8-17.2 1.6-3.8 1.6-4.4-.1-9.9l-1.8-5.9 2.7-4.2c2-3 3.3-7 4.6-14.7 1.1-6 3.1-12.8 4.6-15.9 3.2-6.7 11.3-14.9 18.7-19.2 6.1-3.5 19.8-9.3 20.4-8.7.2.2-1.6 3.5-4 7.2-5.6 8.8-7.4 13.6-8.2 21.5l-.6 6.4 3.3-5.9c5.8-10.5 19.2-22.5 33.4-30.1 5.7-3 12.2-3.2 18-.6zm75.4 35.6c4.3 8.4 6 15.7 5.9 25l-.1 8-2.2-9c-3.2-12.9-6.3-21.8-10.7-31l-3.9-8 4 4.5c2.1 2.4 5.3 7.1 7 10.5zm108.4 86.7c-.9 5.1-1.9 10.6-2.2 12.3l-.5 3 2.8-2.5 2.7-2.5-.7 3c-2.2 9.5-12.2 29.9-18.1 37-2 2.4-1.7 1.4 1.4-5 6.2-12.5 10.4-27 7.2-25-1 .6-1.2.4-.6-1.1 1.3-3.5 7.5-27.8 8.3-32.9l.8-5 .3 4.7c.2 2.7-.4 9-1.4 14zm-323.9 10c1.5 2.2 4.7 6.1 7.2 8.5l4.4 4.5-3.3-.7c-5.5-1.2-10.4-4.2-14.2-8.6-3.4-4.1-4.7-6.7-2.6-5.4.6.4 1-2.1 1-6.7v-7.3l2.4 5.8c1.4 3.2 3.6 7.7 5.1 9.9zm328.6 40.7c-5.4 13.6-13.5 27.1-26 43.1-4.7 6-6.7 8-6.9 6.7-.3-1.3-.9-1.6-2.5-1.1-6.4 1.9-13 5.5-23 12.6-18.8 13.4-25.6 15.6-13.6 4.4 3.7-3.3 11.7-10.8 17.8-16.5 6.1-5.7 11.1-9.8 11.1-9.2 0 2.9 15-9 25.9-20.5 7.2-7.5 16-19.5 17.7-23.8.4-.9.8-1.5 1.1-1.3.2.3-.5 2.7-1.6 5.6z"/><path d="M244.9 281.9c-7.1 7.3-11.3 16.8-11.7 26.1-.3 5.6 0 8 1.2 9.5 1.5 1.9 1.5 1.9 1.6-.8 0-4.7 3-17.9 5.3-23.2 1.9-4.7 4.4-8.8 8.3-14.3 2.9-3.9.2-2.4-4.7 2.7zm68.2 7.9c1.2 5.2 1.1 15.5-.2 20.7-1.8 7.1-4 8.5-17.1 10.1-23.1 3-27.8 6.3-27.8 19.5 0 9.1 4.5 15.5 11.6 16.5l3.9.5-3-2.5c-3.5-3-3.4-3.1 2-1.1 5.8 2.1 12 1.8 25.8-1 10.3-2.1 12.6-2.9 14.6-5.2 2.1-2.4 2.3-3.4 1.8-8.5-.3-3.8-1.5-7.4-3.3-10.5-2.5-4.4-2.7-5.5-2.8-17.2-.2-10.5-.6-13.5-2.5-18.3-2.6-6.8-4.3-8.4-3-3zm-81.2 37.4c-2 .5-5 2.3-6.5 3.9-2.5 2.6-2.9 3.8-2.8 8.3.3 10 4.9 14.6 14.8 14.6 4.7 0 5.7-.4 7.5-2.6 1.2-1.5 2.1-3.6 2.1-4.8 0-1.1.9-3.5 2-5.1 2.6-3.9 2.5-8.5-.1-11.4-3.8-4-9.3-5-17-2.9zm19.7 16c-2.7 4.1-6.7 13.6-7.3 17.2-.7 4.6.5 10.6 2.3 11.3.8.3 2.3-.6 3.5-2.1 2.6-3.3 3.2-2.8 3.9 3l.5 4.5 3.4-2.3c1.9-1.3 4.3-4.1 5.5-6.2 3.8-7.5 3.1-21.1-1.5-25.7-2.7-2.7-8.4-2.6-10.3.3zm-22 26.5c-.3 1 .3 4.9 1.3 8.8l1.8 7 1.6-3.2c2.2-4.2 2.2-9.6 0-11.5-3.1-2.6-4.1-2.9-4.7-1.1zm9.4 19.6c-4.6 6.7-7 8.2-16.4 10.7-4.3 1.1-9.1 2.8-10.5 3.6-2.4 1.3-1.7 1.4 8.4 1.2 12.1-.4 17.1-2 20.8-7 2.1-2.8 3.5-12.2 2.1-13.1-.5-.2-2.5 1.8-4.4 4.6z"/></symbol><symbol viewBox="0 0 500 116" id="text-back" xmlns="http://www.w3.org/2000/svg"><path d="M333.7 21.1c-1.5 1.2-3.4 1.8-4.3 1.5-.8-.3-3.4-.2-5.7.3-10.3 2.3-29.9 3.1-30.5 1.2-.5-1.4-3.2-1.5-3.2 0 0 .5.4.8.9.4.5-.3 1.2-.1 1.5.4 1.1 1.7-.8 1.9-9.9.9-14.4-1.6-58.1-1.2-63.2.6-3.8 1.3-4.3 1.3-4.3 0 0-1-.7-1.3-2.5-.9-1.4.3-3.6.7-4.9 1-1.4.3-2.7.1-3.1-.4-.3-.6-1.6-.4-3.2.4s-4.1 1.2-6 .9c-3.2-.5-4.7.9-2 1.9.6.3-.1.4-1.6.3-1.6-.2-3.2-.8-3.6-1.5-.6-.9-1.1-.8-2.1.3-.7.9-1.6 1.4-2 1.1-.5-.3-3.1-.6-5.9-.6-2.8-.1-5.1-.4-5.1-.8 0-.5-15.2-.9-31.5-.9-2.2 0-5 0-6.2-.1-4.8-.2-6.1-.1-17.3.5-9 .5-11.9 1-13.5 2.4-1.1.9-2.5 1.6-3.2 1.3-.6-.2-1.4.1-1.9.8-.7 1.2 1 1 6.4-.6 1.5-.5 2.2-.3 2.2.6 0 1.1 1.8 1.4 7.5 1.3 4.2-.1 7.8.2 8 .6.3.5 1.4.6 2.4.3s2.2.1 2.6.7c.5.9.1 1-1.5.5-1.8-.6-2.2-.4-1.7.7.4 1.2-.3 1.3-4.1.7-5.1-.8-18-.4-18.9.5-.4.3.1.6 1 .6s1.9.5 2.3 1.1c.4.7 0 .9-1.2.5-1.1-.3-4.9-.6-8.6-.7-4.7-.1-6.8-.5-6.8-1.4 0-.8.9-1 2.6-.7 1.9.3 2.5.1 2-.7-.4-.6-1.4-1.1-2.2-1.1-.7 0-1.9-.9-2.6-2-1.4-2.2-3.2-2.7-2.5-.8.2.7-1 2.3-2.7 3.5-2.3 1.8-4.3 2.3-8.7 2.3-3.2 0-5.9.5-6.1 1.1-.2.7-1.3.5-3.2-.5-2-1-3.6-1.2-5.2-.6-1.4.6-2.6.5-2.9 0-.3-.6-2.5-.8-4.8-.5-2.3.3-8.6.6-13.9.8-8.3.2-9.8.5-10.2 1.9-.3 1.4-1.6 1.8-5.3 2l-4.8.1 4.4.4c2.4.3 4.9-.1 5.4-.6 1.7-1.7 3.3-1.3 4.5 1.1.6 1.3 1.1 1.8 1.1 1.2.1-1.6 14.3-.7 15.3.9.6.9.8.8.8-.1 0-.7.4-1 1-.7 1.6 1 1.2 2.5-.7 2.5-.9 0-1.3.3-1 .6.6.6 8.3 1.6 11.9 1.6 1-.1 2 .3 2.3.9.4.5 2.5.9 4.8 1 3.5 0 3.8.2 2 .9-3.3 1.3-2.8 1.8 1.5 1.8s5.9-.7 4.1-1.9c-2.2-1.3-.6-1.8 3.4-1 2 .5 3.7.6 3.7.2 0-1-1.7-3.3-2.4-3.2-2 .3-2.6 0-2.1-.9.3-.6 1.5-1 2.6-1s1.8-.4 1.5-.8c-.3-.5-1.9-.7-3.6-.4-1.7.2-3 0-3-.6 0-.7 4-1.2 10.5-1.4 5.8-.2 10.5 0 10.5.4 0 .5-.9.8-2 .8s-2 .5-2 1c0 .7 2 .9 5.9.4 4.3-.5 6.1-.3 6.6.7.6.9.3 1.1-.9.6-1.2-.5-1.6-.3-1.3.5.2.7 1.8 1.2 3.5 1.2 3.4-.2 5 2 3 4.3-.9 1.1-.9 1.6.3 2.4 1 .6.2.9-2.5.9-2.2 0-3.7.3-3.3.6.9.9-2.6 4.4-4.5 4.4-2.1 0-2.3-1.1-.5-2.9.9-1.1.7-1-1.1 0-2.9 1.8-2.8 2.7.5 4 2.8 1.1 7.8-.5 6.7-2.2-.6-1 2.9-2.9 5.4-2.9 1.5 0 1.9.5 1.5 2-.4 1.5 0 2 1.3 2 1.5 0 1.6-.2.5-.9-.7-.5-.9-1.1-.4-1.4.6-.4 1.9 0 2.9.8s3.6 1.5 5.7 1.5c3.4 0 3.7.2 2.7 1.9-.8 1.5-2.3 2.1-6.3 2.4-4.2.3-3.6.4 3.3.7 4.7.2 9.4.5 10.5.6 1.1.1 6.2.2 11.4.3 5.2.1 9.2.4 8.9.7-.4.3-4.4.6-9 .6-4.5 0-7.5.3-6.5.5.9.2 1.7.9 1.7 1.4 0 .5 2.5.9 5.5.9s5.5.4 5.5.9c0 .4-6.5.8-14.5.7-8-.1-14.5.2-14.5.6 0 .5 1.7.8 3.7.8s3.4.3 3.1.6c-.8.7-12.5 1.3-29.7 1.3-7.9.1-14.2.4-13.8.7.3.4 4.8.6 9.9.5 10.1-.1 13.2.5 12.2 2.1-.4.7-.2.8.5.4.6-.4.9-1.1.6-1.6-.3-.5 3.5-.8 8.5-.7 6.1.1 9.1.6 9.5 1.4.2.7.9 1.3 1.5 1.3s.8-.5.5-1c-.4-.6 4.3-1 13.4-1 10.2 0 14 .3 14.4 1.2.3 1 .9 1 3-.1 2.3-1.2 3.2-1.2 7.3.4 4 1.5 4.8 1.6 6.1.3 1.1-1.2 2.6-1.3 6.5-.7 2.8.5 5.5 1.4 5.9 2.1.6.9 1.1.9 2.3-.1 1.6-1.4 16.6-1.2 16.6.1 0 .5.4.8 1 .8.5 0 .7-.6.5-1.2-.4-1 4.3-1.3 21.8-1.2 12.3 0 22.9.4 23.5.8 1.9 1.1 1.4 2.6-.9 2.6-1.2 0-1.7.4-1.3 1.1.3.6 1.7.9 3 .6 1.3-.2 2.4 0 2.4.4 0 .5.5.9 1.2.9.6 0 .3-.9-.8-2.1-1.6-1.7-1.6-2.2-.4-2.9 2.1-1.4 3.2-1.2 5.8.6 1.4 1 3.2 1.4 4.8 1 1.4-.4 2.4-.2 2.4.4 0 .9-3.5 1.5-6.7 1.1-.6-.1-1.4.3-1.8.9-.3.5 0 .7.7.5 1.4-.6 5.8 2.9 5.8 4.5 0 .6 1 1 2.3 1.1 2.1 0 2.1.1.2 1-1.8.8-1.7.9.6.6 1.8-.3 2.6.1 2.5 1.1-.1.8 1.2 1.9 2.9 2.5 4.1 1.3 65.6 1.1 72.5-.3 11.8-2.3 27.1-3.8 40.5-4 18.7-.3 20.3-.4 21-1.1.3-.4 2.3-.3 4.3.2 4.8 1.1 5.2 1.1 5.2-.1 0-.6-1.6-1-3.7-1-2 0-3.4-.3-3-.6.3-.3 7.4-.6 15.6-.6 8.3 0 15.1-.4 15.1-.8 0-.5-.8-1.1-1.7-1.3-1.4-.4-1.3-.5.3-.6 1.2 0 2.5.6 2.8 1.5.9 2.4 1.9 1 1.1-1.5-.5-1.8-1.2-2-4.8-1.6-3.3.4-3.6.3-1.7-.4 1.4-.5 2-.9 1.3-1-.7-.1-1-.8-.7-1.5.5-1.3-.6-1.4-6.8-.9-8.2.7-10.2 1.3-4 1.3 3 0 4.2.4 4.2 1.4 0 .8.6 1.6 1.3 1.9.6.2-.8.4-3.3.3-2.5 0-4.7-.4-5-.8-.3-.4-4.7-.8-9.8-.9-6.2-.1-9.5-.6-10.3-1.5-1.4-1.8-.3-3.4 2.4-3.4 2.2.1 2.2.1-.2 1.4l-2.3 1.3 2.3.6c3.9 1.1 4.7.8 4.2-1.3-.5-1.8 0-2 4.3-2 7.3 0 9.3-1.9 2.4-2.2-4.3-.1-4.7-.2-1.7-.5 2.4-.3 3.7-.9 3.7-1.9 0-1.7 2.6-1.9 3.6-.2.5.7.3.8-.6.3-.9-.6-1.1-.4-.5.5.5.8 2.1 1 4.6.7 2.2-.3 4.2-.1 4.5.5.3.5 1.6.7 2.8.3 1.1-.3 7.3-.9 13.6-1.2 7.5-.4 11.8-1 12.5-1.9.5-.7 1.9-1.5 3-1.8 1.1-.3.1-.3-2.2 0-2.4.3-4.3.2-4.3-.3 0-.8-6.1-1.6-12-1.5-1.4 0-3.1-.5-3.9-1.1-1.2-1-1.3-.9-.6.2.6 1.1.4 1.3-.9.8-1-.4-2-.7-2.2-.7-.2 0-.4-.5-.4-1 0-.6.7-1 1.6-1 .8 0 1.2-.4.9-1-.3-.6-2.2-1-4.2-1-3.5 0-3.6.1-1.9 1.9 1 1.1 1.5 2.5 1.1 3-.8 1.4-3.5 1.4-3.5.1 0-.6.5-1 1.2-1 .9 0 .9-.3 0-1.2-.8-.8-1.5-.8-2.6.2-.9.7-4.4 1.5-7.9 1.7-5.9.5-6.4.4-7-1.6-.6-2.4.8-2.9 1.7-.5.7 1.7 4 1.1 6.3-1.2 1.2-1.2 4.3-1 4.3.3 0 .3-.7.3-1.5 0-.8-.4-1.7-.2-2 .3-.8 1.4 3.2 1.3 5.7-.1 1.7-.9 1.8-1.3.7-2-.8-.5-2.4-.9-3.6-.9-1.3 0-2.3-.5-2.3-1 0-.6-.9-1-2-1s-2-.4-2-1c0-.5 3.7-.8 8.9-.7 6.9.2 8.8 0 8.4-1-.3-.9.4-1.3 2.3-1.3 1.5 0 2.5-.2 2.3-.5-.3-.2-4.4-.6-9.2-.8-4.8-.2-9.1-.7-9.5-1.2-.4-.4 1.8-.4 4.8-.1 5.2.6 5.6.5 5.6-1.4 0-1.8-.7-2-6.6-2-3.6 0-7.2-.5-8-1-1-.7 2.5-1 11-1.1 15.3-.2 22.1-.6 22.9-1.5.9-1-54 .7-65.9 2-3.9.4-4 .4-1-.3l3.5-.8-3.7-.2c-2.4 0-3.8.4-3.8 1.1 0 .9-.3.9-1.2 0-.7-.7-4.6-1.2-9.7-1.3-5.9-.1-7.8-.4-6.1-.9 1.7-.5 1.9-.8.8-.9-1-.1-1.8-.5-1.8-1s-.9-1.1-2.1-1.4c-3.9-1-.9-3 3.7-2.4 2.4.2 4.4.1 4.4-.4s.7-.9 1.5-.9 1.5.4 1.5 1c0 1.1 5.6.3 8-1.2 1.3-.8 1.3-.8 0-.7-3.4.3-5.1-.2-4.7-1.4.2-.6 1.5-1.1 2.8-1l2.4.3-2.5-1.1c-1.4-.6-5.6-1.3-9.4-1.5-4.9-.3-7.3-.9-8.3-2.2-.8-.9-1.2-1.1-.8-.4 1 1.9-2.2 2.5-4.6.8-1.2-.8-3.3-1.3-4.8-1-1.4.2-3.9.1-5.6-.4-2.7-.8-2.4-.9 3-1.5 9.7-1 18.4-.4 19.6 1.3.8 1.1 1.2 1.2 1.6.2.5-1.4 7.3-1.7 7.3-.3 0 .5-1.2.8-2.7.6-2.4-.2-2.5-.1-.9 1 1.2.9 2.7 1.1 4.8.4 2-.5 3.6-.5 4.4.2.8.6 1.4.7 1.8 0 .9-1.5-1.2-2.4-4-1.7-1.3.4-2.4.2-2.4-.4 0-.6 4.2-.8 11.3-.6l11.2.4-8-1.1c-8.6-1.3-8.8-2-1.2-3.1 3-.5 4.7-1.2 4.4-1.9-.7-2.2-9.1-2.9-34.9-3.1-14.1 0-25.1-.4-24.5-.8.7-.4 2-.8 2.9-.8.9 0 2-.5 2.3-1 1.1-1.8-2.9-1-5.8 1.1zM352 25c0 .5-.4 1-1 1-.5 0-1-.5-1-1 0-.6.5-1 1-1 .6 0 1 .4 1 1zm4.5 0c.3.6-.4 1-1.7 1-1.8 0-2-.2-.8-1 1.9-1.2 1.8-1.2 2.5 0zm13.4.6c3.9.5 5.7 1 4.9 1.5-1.6 1-13.9 0-15.2-1.2-1.2-1.1 1.8-1.1 10.3-.3zm-226.9 4c0 .2-1.1.4-2.5.4s-2.5-.4-2.5-.9c0-.4 1.1-.6 2.5-.3 1.4.2 2.5.6 2.5.8zM112.5 31c.3.5-.1 1-.9 1-.9 0-1.6-.5-1.6-1 0-.6.4-1 .9-1 .6 0 1.3.4 1.6 1zm21 2.9c-.8 1.3-3.5 1.5-3.5.2 0-.5.8-1.1 1.8-1.3 2.1-.5 2.6-.2 1.7 1.1zm5.8.8c-.7.2-1.9.2-2.5 0-.7-.3-.2-.5 1.2-.5s1.9.2 1.3.5zM87 37.5c-.7.9-1.5 1.3-1.7 1.1-.7-.7.7-2.6 1.9-2.6.6 0 .6.6-.2 1.5zM58 40c0 .5-.6 1-1.4 1-.8 0-1.8-.5-2.1-1-.3-.6.3-1 1.4-1 1.2 0 2.1.4 2.1 1zm4.3-.3c-.7.2-1.9.2-2.5 0-.7-.3-.2-.5 1.2-.5s1.9.2 1.3.5zm-5.2 5.1c-.6.2-.9.8-.5 1.3.3.5 1.5.3 2.7-.6 1.2-.8 3-1.5 4-1.5s1.5-.5 1.2-1c-.7-1.2.8-1.4 1.9-.3.4.5 2.2.8 3.9.8 1.8 0 3.2.5 3.2 1.2 0 .6.3 1.5.8 1.9.4.4.7 1.2.7 1.8-.1.6-.9.1-1.9-1.2-2.2-2.5-4.1-2.8-6-1-1.1 1-1.3 1-.7 0 1-1.8-3.4-1.6-6.2.3-1.6 1.2-2.6 1.3-4.2.5-2.5-1.3-2.5-2.6-.2-3.9 1.2-.7 1.8-.6 2.1.2.2.6-.1 1.3-.8 1.5zM103 43c1.2.8.9 1-1.2 1-1.6 0-2.8-.5-2.8-1 0-1.3 2-1.3 4 0zm130 13.6c0 .2-1.3.4-3 .4-1.6 0-3-.4-3-.8 0-.5 1.4-.7 3-.4 1.7.2 3 .6 3 .8zm19.7-.4c-.9.4-2.6.4-3.9-.1-2-.8-1.8-.9 1.5-.9 2.6.1 3.4.4 2.4 1zm156.6-.5c-.7.2-1.9.2-2.5 0-.7-.3-.2-.5 1.2-.5s1.9.2 1.3.5zm10 0c-.7.2-1.9.2-2.5 0-.7-.3-.2-.5 1.2-.5s1.9.2 1.3.5zm-195 1c-.7.2-1.9.2-2.5 0-.7-.3-.2-.5 1.2-.5s1.9.2 1.3.5zm20.4-.1c-.3.3-1.2.4-1.9.1-.8-.3-.5-.6.6-.6 1.1-.1 1.7.2 1.3.5zM410 60.9c0 1-3 2.4-3.7 1.7-.3-.3-.2-.9.2-1.5.8-1.3 3.5-1.5 3.5-.2zm6.7 1.7c-.3.3-1.2.4-1.9.1-.8-.3-.5-.6.6-.6 1.1-.1 1.7.2 1.3.5zm-11 2c-.3.3-1.2.4-1.9.1-.8-.3-.5-.6.6-.6 1.1-.1 1.7.2 1.3.5zm-1.2 3.4c.3.5 2 1 3.7 1 1.7 0 2.8.3 2.4.7-.4.5-5.1.9-10.4 1-9.7.3-11.1-.6-4.2-2.5 4.7-1.4 7.7-1.4 8.5-.2zm-32.2 5.7c-.7.2-2.1.2-3 0-1-.3-.4-.5 1.2-.5 1.7 0 2.4.2 1.8.5zm8 0c-.7.2-1.9.2-2.5 0-.7-.3-.2-.5 1.2-.5s1.9.2 1.3.5zm47.2.3c-.3.5-1.3 1-2.1 1s-1.4-.5-1.4-1c0-.6.9-1 2.1-1 1.1 0 1.7.4 1.4 1zm5.5-.1c0 .5-.9.7-2 .4-1.1-.3-2-.7-2-.9 0-.2.9-.4 2-.4s2 .4 2 .9zm-297.7.8c-.7.2-1.9.2-2.5 0-.7-.3-.2-.5 1.2-.5s1.9.2 1.3.5zm19.3.5c.4.5-2.7.8-6.9.8s-7.7-.4-7.7-.8c0-1 13.6-1 14.6 0zm4.4.4c0 .2-.7.4-1.5.4s-1.5-.4-1.5-1c0-.5.7-.7 1.5-.4.8.4 1.5.8 1.5 1zm230.1-.1c-.1 1-.7 1.1-6.3.5l-3.3-.3 4-.7c4.8-.8 5.7-.8 5.6.5zm14.3.4c.3.4-.6.6-1.9.3-1.4-.2-2.5-.6-2.5-.8 0-.8 3.9-.4 4.4.5zm-232.7 3.7c-.3.3-1.2.4-1.9.1-.8-.3-.5-.6.6-.6 1.1-.1 1.7.2 1.3.5zm98.6 1.1c-.7.2-1.9.2-2.5 0-.7-.3-.2-.5 1.2-.5s1.9.2 1.3.5zm3.7.3c0 .5-.4 1-1 1-.5 0-1-.5-1-1 0-.6.5-1 1-1 .6 0 1 .4 1 1zm160 2c0 .5-.4 1-1 1-.5 0-1-.5-1-1 0-.6.5-1 1-1 .6 0 1 .4 1 1zm-158.6 3.1c-.2.4 1.1.3 3-.1s4-.4 4.7.1c.8.4 2.5.5 3.8.2 1.7-.4 2.2-.2 1.9.8-.3.9-2.1 1.4-5.4 1.5-2.7 0-7.8.2-11.3.5-5.7.4-6.4.2-7.1-1.6-.7-1.9-.4-2 5-2 3.2 0 5.6.3 5.4.6zm145.9-.4c-.7.2-1.9.2-2.5 0-.7-.3-.2-.5 1.2-.5s1.9.2 1.3.5zM346 87.9c0 .4-1.8.5-4 .3s-4-.7-4-1.1c0-.4 1.8-.5 4-.3s4 .7 4 1.1zm-30.3-.3c-.3.3-1.2.4-1.9.1-.8-.3-.5-.6.6-.6 1.1-.1 1.7.2 1.3.5zm46 .7c.3.4-1.4.7-4 .7-2.5 0-4.8-.4-5.1-.8-.6-1 8.1-.8 9.1.1zm-56.7.6c0 .5 3 .7 6.8.4 12.5-.9 19.9-.2 18.7 1.7-.3.5-2 .4-3.8 0-1.7-.5-8.4-.8-14.7-.6-6.9.2-12.9-.2-14.9-.9-3.5-1.1-3.5-1.1 2.2-1.3 3.1-.1 5.7.3 5.7.7zm60.7-.3c-.3.3-1.2.4-1.9.1-.8-.3-.5-.6.6-.6 1.1-.1 1.7.2 1.3.5zm5.8.4c.3.5-.3 1-1.4 1-1.2 0-2.1-.5-2.1-1 0-.6.6-1 1.4-1 .8 0 1.8.4 2.1 1zm29.2.6c-.3.3-1.2.4-1.9.1-.8-.3-.5-.6.6-.6 1.1-.1 1.7.2 1.3.5zm4 0c-.3.3-1.2.4-1.9.1-.8-.3-.5-.6.6-.6 1.1-.1 1.7.2 1.3.5zM294 93.4c0 .3-.4.8-1 1.1-.5.3-1 .1-1-.4 0-.6.5-1.1 1-1.1.6 0 1 .2 1 .4zm11.5.6c2.5.6 2.1.8-2.5.9-3 0-6.2-.4-7-.9-1.8-1.2 4.9-1.2 9.5 0zm11.2 1.6c-.3.3-1.2.4-1.9.1-.8-.3-.5-.6.6-.6 1.1-.1 1.7.2 1.3.5z"/><path d="M357.5 20c-.4.6.6.7 2.7.3 4.4-.8 4.8-1.3 1-1.3-1.7 0-3.4.4-3.7 1zm-71.7 2.7c.6.2 1 .9.7 1.4-.4.5.1.6 1 .2 1.3-.5 1.4-.7.3-1.4-.7-.5-1.7-.8-2.3-.8-.5 0-.4.3.3.6zM89 27.9c0 .5.9.7 2 .4 1.1-.3 2-.7 2-.9 0-.2-.9-.4-2-.4s-2 .4-2 .9zm5.8.8c.6.2 1.8.2 2.5 0 .6-.3.1-.5-1.3-.5-1.4 0-1.9.2-1.2.5zM407.5 31c.5.7 14.4 3.4 23.5 4.4 4.5.6 4.5.6 1.5-.8-1.6-.8-6.4-1.7-10.5-2.1-4.1-.4-9.2-1.1-11.2-1.5-2.1-.4-3.6-.4-3.3 0zm-315.8.7c-.3.5 1.1.9 3.1 1.1 4 .3 4-.2 0-1.2-1.5-.3-2.9-.3-3.1.1zm-8.9 1c.7.3 1.6.2 1.9-.1.4-.3-.2-.6-1.3-.5-1.1 0-1.4.3-.6.6zm-4 3c.6.2 1.8.2 2.5 0 .6-.3.1-.5-1.3-.5-1.4 0-1.9.2-1.2.5zm-68 3.2c1.2.7 6.2.4 6.2-.5 0-.2-1.7-.4-3.7-.4-2.4 0-3.3.3-2.5.9zm9-.2c.7.3 1.6.2 1.9-.1.4-.3-.2-.6-1.3-.5-1.1 0-1.4.3-.6.6zM9.5 42c-.3.5-.1 1 .4 1 .6 0 1.1.4 1.1 1 0 .5-2 1-4.5 1s-4.5.4-4.5.9c0 1.1 4.8 2.4 6.1 1.5.5-.3 1.6-.1 2.3.5 1 .8 2.1.7 4.2-.4 1.6-.8 2.2-1.5 1.3-1.5-.9 0-2.2-1.1-2.9-2.5-1.4-2.7-2.5-3.1-3.5-1.5zm-1.8 4.6c-.3.3-1.2.4-1.9.1-.8-.3-.5-.6.6-.6 1.1-.1 1.7.2 1.3.5zM387 42c.8.5 2 1 2.5 1 .6 0 .3-.5-.5-1s-1.9-1-2.5-1c-.5 0-.3.5.5 1zm12 .1c0 .5.5.7 1 .4.6-.3 1-.8 1-1.1 0-.2-.4-.4-1-.4-.5 0-1 .5-1 1.1zm4.8-.4c.7.3 1.6.2 1.9-.1.4-.3-.2-.6-1.3-.5-1.1 0-1.4.3-.6.6zm-389 1c.6.2 1.8.2 2.5 0 .6-.3.1-.5-1.3-.5-1.4 0-1.9.2-1.2.5zm365.8 2.8c.4.8.8 1.5 1 1.5.2 0 .4-.7.4-1.5s-.4-1.5-1-1.5c-.5 0-.7.7-.4 1.5zM91 48c-2.1.7-1.7.8 2 .9 3.2 0 4.1-.2 3-.9-1.7-1.1-1.6-1.1-5 0zm378.6.4c.8 2.1 5.2 2.6 8.8 1 1.7-.7 2.9-1.4 2.6-1.4-.3-.1-3.1-.4-6.2-.6-4.6-.3-5.6-.1-5.2 1zM20.8 50.7c.7.3 1.6.2 1.9-.1.4-.3-.2-.6-1.3-.5-1.1 0-1.4.3-.6.6zm414 2c.7.3 1.6.2 1.9-.1.4-.3-.2-.6-1.3-.5-1.1 0-1.4.3-.6.6zM82.3 54.3c-.7 1.1 2.5 2 5.1 1.3 1.5-.4 2.6-.1 2.9.7.3.9.9.9 2.6-.1 1.1-.6 3.7-1.2 5.8-1.2 2 0 3.4-.3 3-.6-.9-.9-18.8-1-19.4-.1zm21.2-.3c.3.5 1.3 1 2.1 1s1.2-.5.9-1c-.3-.6-1.3-1-2.1-1s-1.2.4-.9 1zm334.3 5.7c.7.3 1.6.2 1.9-.1.4-.3-.2-.6-1.3-.5-1.1 0-1.4.3-.6.6zm19.7 1.3c.3.5 1.1 1 1.6 1 .6 0 .7-.5.4-1-.3-.6-1.1-1-1.6-1-.6 0-.7.4-.4 1zM70.8 62.7c.6.2 1.8.2 2.5 0 .6-.3.1-.5-1.3-.5-1.4 0-1.9.2-1.2.5zM8.6 63.9c-2.3.5-2.6.8-1.5 1.7 1.5 1.1 9.4 1.2 10.5.1.7-.6-4-2.8-5.4-2.6-.4.1-2 .4-3.6.8zm456.2-.2c.7.3 1.6.2 1.9-.1.4-.3-.2-.6-1.3-.5-1.1 0-1.4.3-.6.6zm-7.8 1.7c0 .9 3 1.4 3.5.6.4-.6-.3-1-1.4-1-1.2 0-2.1.2-2.1.4zm17.5.6c.4.7-.2.9-1.9.4-1.6-.4-2.6-.2-2.6.5 0 .6.7 1.1 1.5 1.1s2 .9 2.7 2c.7 1.1 1.9 2 2.7 2 1.1 0 1.2-.3.4-1.1-.8-.8-.4-1.8 1.5-3.6 1.5-1.4 1.9-2 .9-1.3-1.4 1-2.1 1-2.9.2-1.5-1.5-3.1-1.6-2.3-.2zm8.3 1.7c.7.3 1.6.2 1.9-.1.4-.3-.2-.6-1.3-.5-1.1 0-1.4.3-.6.6zm-354 1c1.2.2 3.2.2 4.5 0 1.2-.2.2-.4-2.3-.4s-3.5.2-2.2.4zM465 71c0 .6.7 1 1.5 1s1.5-.2 1.5-.4-.7-.6-1.5-1c-.8-.3-1.5-.1-1.5.4zm5.8.7c.7.3 1.6.2 1.9-.1.4-.3-.2-.6-1.3-.5-1.1 0-1.4.3-.6.6zm-5.3 3.3c-.3.5-.2 1 .4 1 .5 0 1.3-.5 1.6-1 .3-.6.2-1-.4-1-.5 0-1.3.4-1.6 1zm5.3.7c.6.2 1.8.2 2.5 0 .6-.3.1-.5-1.3-.5-1.4 0-1.9.2-1.2.5zM102 80.1c0 .5.5.7 1 .4.6-.3 1-.8 1-1.1 0-.2-.4-.4-1-.4-.5 0-1 .5-1 1.1zm42 .9c0 .5.5 1 1 1 .6 0 1-.5 1-1 0-.6-.4-1-1-1-.5 0-1 .4-1 1zm84.8.7c.7.3 1.6.2 1.9-.1.4-.3-.2-.6-1.3-.5-1.1 0-1.4.3-.6.6zm183.7.3c.3.5 1.2.7 2 .3 2.1-.7 1.9-1.3-.6-1.3-1.1 0-1.8.4-1.4 1zm-240.1 2.5c-2.2 1.7-2.2 1.7 3.4 2 2.3.2 4.2-.1 4.2-.6s-.8-.9-1.8-.9-2.3-.5-2.8-1c-.7-.7-1.7-.5-3 .5zm252.4-.8c.7.3 1.6.2 1.9-.1.4-.3-.2-.6-1.3-.5-1.1 0-1.4.3-.6.6zM167 86c0 .5.7 1 1.6 1 .8 0 1.2-.5.9-1-.3-.6-1-1-1.6-1-.5 0-.9.4-.9 1zm15 0c0 .5.5 1 1.1 1 .5 0 .7-.5.4-1-.3-.6-.8-1-1.1-1-.2 0-.4.4-.4 1zm262.2.2c.6 1.6 10.6 3 12.8 1.8.9-.5 2.3-.4 3.2.1 1.1.6 1.9.5 2.3-.2.4-.6 2.6-1 4.9-.9 9.3.4 15.1 0 13.6-.9-.8-.6-2.6-.8-4-.6-7.1 1.1-29.1 1.5-28.5.5.4-.6-.4-1-2-1-1.7 0-2.5.5-2.3 1.2zm-282.4 1c1.7.8 2.6.8 3.4 0 .9-.9.4-1.2-2.2-1.1-3.3 0-3.4.1-1.2 1.1zm72.2 0c0 .5 1.5.8 3.4.8s3.8.5 4.1 1c.4.6 1.5.8 2.6.5 1-.4 3.2-.7 4.8-.7 2.1-.1 2.6-.4 1.9-1.2-1.2-1.2-16.8-1.5-16.8-.4zm25.5 1.7c-.3.6-1.2.8-1.8.5-.8-.5-.8-.3.1.7s1.5 1 2.4.1c.6-.6.9-1.4.6-1.7-.3-.4-.9-.1-1.3.4zM220 90.1c0 .5 1.1.9 2.5.9s2.5-.2 2.5-.4-1.1-.6-2.5-.8c-1.4-.3-2.5-.1-2.5.3z"/></symbol><symbol viewBox="0 0 342.357 342.357" id="tick" xmlns="http://www.w3.org/2000/svg"><path d="M290.04 33.286L118.861 204.427l-66.541-66.52L0 190.226l118.862 118.845L342.357 85.606z"/></symbol><symbol viewBox="0 0 647 679" id="user" xmlns="http://www.w3.org/2000/svg"><path d="M302 .6c-1.4.2-5.6.9-9.5 1.5-16.2 2.6-35.5 10.5-51 20.9-10.1 6.7-27.6 24.2-34.2 34-10 15-17.3 32.1-20.9 49.5-1.8 8.3-1.9 14.2-1.9 78 0 53.8.3 70.7 1.4 76.5 9.7 53.8 50 95 104.1 106.7 12.4 2.6 52.8 2.6 65-.1 26-5.7 48.1-17.7 66.5-36.1 5.5-5.5 12.4-13.5 15.3-17.7 7.8-11.5 15.8-28.8 19.5-42.5l3.2-11.8V186c0-68.1-.1-74.1-1.9-81.5C445.5 52.2 407 14 355 2.5c-7.2-1.6-46.6-3-53-1.9zm-5.5 420c-52.9 4.3-98.8 14.3-147.5 31.9-42.8 15.5-88.3 37.9-122 60.1-12.4 8.1-18.2 13.2-21.6 19C.3 540.3 0 544.2 0 614.2V679h647v-64.8c0-70-.3-74-5.4-82.6-1.3-2.2-4.2-5.7-6.3-7.8-5.2-5-27.3-19.2-45.6-29.4-69.8-38.9-145.3-63.7-219.2-72-13.4-1.5-62.9-2.7-74-1.8z"/></symbol><symbol viewBox="0 0 96.496 96.496" id="vk" xmlns="http://www.w3.org/2000/svg"><path d="M92.499 65.178c-2.873-3.446-6.254-6.387-9.453-9.51-2.886-2.815-3.068-4.448-.748-7.697 2.532-3.546 5.255-6.956 7.81-10.486 2.385-3.299 4.823-6.589 6.078-10.539.796-2.513.092-3.623-2.485-4.063-.444-.077-.903-.081-1.355-.081l-15.289-.018c-1.883-.028-2.924.793-3.59 2.462-.899 2.256-1.826 4.51-2.897 6.687-2.43 4.936-5.144 9.707-8.949 13.747-.839.891-1.767 2.017-3.169 1.553-1.754-.64-2.271-3.53-2.242-4.507l-.015-17.647c-.34-2.521-.899-3.645-3.402-4.135l-15.882.003c-2.12 0-3.183.819-4.315 2.145-.653.766-.85 1.263.492 1.517 2.636.5 4.121 2.206 4.515 4.849.632 4.223.588 8.463.224 12.703-.107 1.238-.32 2.473-.811 3.629-.768 1.817-2.008 2.187-3.637 1.069-1.475-1.012-2.511-2.44-3.525-3.874-3.809-5.382-6.848-11.186-9.326-17.285-.716-1.762-1.951-2.83-3.818-2.859a389.727 389.727 0 00-13.762.004c-2.76.052-3.583 1.392-2.459 3.894 4.996 11.113 10.557 21.917 17.816 31.759 3.727 5.051 8.006 9.51 13.534 12.67 6.265 3.582 13.009 4.66 20.112 4.328 3.326-.156 4.325-1.021 4.479-4.336.104-2.268.361-4.523 1.48-6.561 1.098-2 2.761-2.381 4.678-1.137.959.623 1.767 1.416 2.53 2.252 1.872 2.048 3.677 4.158 5.62 6.137 2.437 2.48 5.324 3.945 8.954 3.646l14.052.003c2.264-.148 3.438-2.924 2.138-5.451-.913-1.77-2.111-3.346-3.383-4.871z"/></symbol><symbol viewBox="0 0 24 24" id="vk-full" xmlns="http://www.w3.org/2000/svg"><path d="M12.145 19.5c3.472 0 2.234-2.198 2.502-2.83-.004-.472-.008-.926.008-1.202.22.062.739.325 1.811 1.367 1.655 1.67 2.078 2.665 3.415 2.665h2.461c.78 0 1.186-.323 1.389-.594.196-.262.388-.722.178-1.438-.549-1.724-3.751-4.701-3.95-5.015a2.84 2.84 0 01.103-.175h-.002c.632-.835 3.044-4.449 3.399-5.895a.019.019 0 00.002-.008c.192-.66.016-1.088-.166-1.33-.274-.362-.71-.545-1.299-.545h-2.461c-.824 0-1.449.415-1.765 1.172-.529 1.345-2.015 4.111-3.129 5.09a64.114 64.114 0 01.007-3.233c.036-1.535.152-3.029-1.441-3.029H9.339c-.998 0-1.953 1.09-.919 2.384.904 1.134.325 1.766.52 4.912-.76-.815-2.112-3.016-3.068-5.829-.268-.761-.674-1.466-1.817-1.466H1.594C.596 4.501 0 5.045 0 5.956 0 8.002 4.529 19.5 12.145 19.5zM4.055 6.001c.217 0 .239 0 .4.457.979 2.883 3.175 7.149 4.779 7.149 1.205 0 1.205-1.235 1.205-1.7l-.001-3.702C10.372 6.98 9.926 6.37 9.633 6l3.508.004c.002.017-.02 4.095.01 5.083 0 1.403 1.114 2.207 2.853.447 1.835-2.071 3.104-5.167 3.155-5.293.075-.18.14-.241.376-.241h2.471l-.002.009c-.225 1.05-2.446 4.396-3.189 5.435l-.034.05c-.327.534-.593 1.124.045 1.954h.001c.058.07.209.234.429.462.684.706 3.03 3.12 3.238 4.08-.138.022-.288.006-2.613.011-.495 0-.882-.74-2.359-2.23-1.328-1.292-2.19-1.82-2.975-1.82-1.524 0-1.413 1.237-1.399 2.733.005 1.622-.005 1.109.006 1.211-.089.035-.344.105-1.009.105C5.8 18 1.668 7.929 1.509 6.004c.055-.005.812-.002 2.546-.003z"/></symbol></svg>