<svg version="1.0" xmlns="http://www.w3.org/2000/svg" width="877.333" height="877.333" viewBox="0 0 658 658"><path d="M498.5 1.6c-3.8 1.9-7.1 5.4-11.6 12.4-2 3-7.9 12-13.1 20-9.4 14.4-26.7 42.9-37 61-4.1 7.2-5.8 9.5-7.3 9.4-1.1-.1-6.5-1.8-12-3.9-14.7-5.4-37.1-10.7-55-13-22.9-2.9-65-2.7-81.3.4-3.6.7-4.2.6-3.7-.6.4-1.2 0-1.4-2.1-.9-5 1.3-21.6 4.6-22.8 4.6-1.2-.1 3.1-1.6 22.9-8 15.4-4.9 18.1-6.3 11-5.5-2.7.3-5.7.8-6.5 1-.8.2-3.1.6-5 .9-2.9.5-11.3 2.5-17 4-14.9 4.2-38.9 14.7-61 26.8-3 1.7-8.4 4.7-12 6.6-20.5 11.2-39.1 25.6-57.8 45-45.8 47.3-73.7 97-78.8 140.7-.3 2.7-.7 5.2-.9 5.5-.7 1.2-1.9 20.9-1.9 32 0 11 1.1 28.8 1.9 32 .2.8.6 3.1.9 5 .8 5.1 1.6 9 2.7 13.5.5 2.2 1.2 5 1.4 6.2.9 3.8 5.7 16.7 6.6 17.7.5.6.9 1.7.9 2.5 0 1.8-6.6-7.6-8.1-11.5-.5-1.5-1.2-2.4-1.5-2.1-.3.2 2.7 9.2 6.5 19.8 8.9 24.2 12.5 29.8 27.6 42.4 3.3 2.7 12.8 11.5 21 19.6 8.3 8.1 17.5 16.8 20.5 19.4 14.8 12.6 42.1 27.4 63.5 34.3 28.1 9.2 54.1 12.2 86 9.9 9.3-.7 9.8-.6 7.1.8-4.9 2.6-14.4 4.9-32.1 7.9-2.9.5-13.1 2.5-14.4 2.7-.3.1 1.9.5 4.9.9 9.4 1.1 40.7.1 49.5-1.6 1.1-.2 3.8-.6 5.9-.9 13.6-1.8 36.7-9 50-15.7 11.5-5.7 17.2-9.8 25.6-17.8 8.1-7.9 10.4-8.6 4.3-1.3-5.6 6.8-6.1 7.8-3.2 6.2 8.9-4.7 25.5-17.5 34.9-26.9 17.2-17.2 31.4-40.6 39-64.3 5.1-15.9 5.3-16.2 6-9.7.3 3 .5 9.7.5 14.8-.1 5.1.3 9.1.8 8.9 1.2-.4 3.5-7.1 4.3-12.7.4-2.5.8-5.4 1-6.5 1.2-6.3 1.9-20.3 1.8-37-.1-23.1-1.4-29.9-9.1-47-6.7-15-9.4-19.1-22-34.2L420.1 303l5-10.8c6.9-14.6 15.2-33.6 17.5-40.1 1.4-4.1 2.8-6 5.7-7.9 4.9-3.3 6.8-7 7.3-14.6.9-13.1 1.5-15.8 5-23.3 2-4.3 4-8.8 4.5-10.1l.9-2.2 3.2 2.7c16.4 13.9 36 37.1 46.9 55.5 13.2 22.3 23.9 51.7 27.4 74.8.3 2 .8 4.7 1 6 2.3 11.9 2.4 51.4.1 63.6-.2 1-.7 4.1-1 6.7-2.4 17.8-10.2 46.3-17.2 62.8-8.4 20.2-20.6 41.4-30.9 53.8-37.2 45.1-88.6 72.9-156.5 84.5-8 1.4-17.4 2.8-21 3.1-3.6.3-7.2.8-8 1-3.4.9-28.8 1.8-46.9 1.8-11.2 0-18.7.3-18 .8 2.4 1.5 19 6.7 26.4 8.3 8.1 1.8 17.3 3.2 26.5 4.2 3.6.4 7.2.8 8 .9.8.2 6.3.6 12.3 1 5.9.4 11 1.1 11.3 1.6.2.4 5.1.7 10.7.5l10.2-.4-6.5 1.3c-11.5 2.4-14.2 2.7-32.5 3-17.7.2-34.9-1.1-49.5-4-1.4-.3-5.9-1.2-10-2-31-6-81.1-22.3-105.8-34.4-10.5-5.1-11.2-5.3-10.5-3.5.9 2.4 15.2 14.2 25.4 21 11.2 7.4 51.9 27.6 66.2 32.9 8.3 3 24.4 7.8 30.5 9 .9.2 5.1 1 9.2 1.8 4.1.9 9.8 1.9 12.5 2.3 2.8.3 5.9.8 7 1 10.2 2 54.1 2.6 68 1 24.2-2.8 57.3-11.1 76-19.1 37.4-15.9 65.2-34.1 92.1-60.2 12.7-12.3 28.8-30.2 32.8-36.4 1-1.7 2-2.9 2.1-2.7.2.2-.5 4-1.5 8.5-2 9-3.3 18.3-2.6 18.3.3 0 2.2-2.8 4.3-6.2 13.3-21.9 21.6-39.8 30.2-65.3 4.4-13.1 11.9-40.3 13.5-49 .3-1.7 1.6-8.9 3-16 1.3-7.2 2.7-15.3 3-18 3.3-26.6 2.4-69.8-1.9-91.5-.2-1.4-.7-3.9-1-5.5-1.2-7.4-1.7-9.5-4-18-2.9-10.7-8-25.6-10.2-29.9-3.7-7.1 2 .1 11.4 14.3 11.3 17.2 10.2 15.6 10.9 14.9 1.3-1.3-10.5-29.3-17.5-41.5-9.8-17.1-40.1-56.7-52.6-68.8-6.9-6.8-22.7-21.7-30.1-28.5-6.5-6-18.8-16-24.2-19.5-2.9-1.9-4.1-3.3-3.7-4.4 3.8-12.1 13.1-47.9 15-58.1.3-1.4.9-4 1.4-5.8.5-1.7.8-3.2.6-3.2-.3 0-.1-1 .4-2.3.5-1.2 1.2-4.4 1.5-7.1.4-2.7.9-5.2 1.1-5.6.2-.3.6-2.4.9-4.6.7-4.3.7-4.3 3.1-15.4 2.6-12.4 3-21.1 1.1-24.8-.9-1.8-2.8-3.7-4.2-4.2-3.3-1.3-3.4-1.3-6.9.6zM466 69.2c-25.6 51.3-37.9 79-47.6 107.8-2.1 6.3-4 11.7-4.1 11.9-.4.5-7.3-3.2-7.3-3.9 0-.7 5.8-17 6.9-19.5.5-1.1 1.7-4 2.6-6.5 4.9-13.4 16.4-37.3 29-60.5 9.8-18.1 37-64.5 37.9-64.5.1 0-7.7 15.9-17.4 35.2zm-122.2 75.2c9.3.8 12.7 1.3 28.9 4.2 7.1 1.3 30.3 8.1 31.6 9.4.4.4-1.9 6.4-5.2 13.3-3.4 7-6.1 13.1-6.1 13.7 0 .6-2.7 3.8-6 7.3-6.9 7.1-8.2 10.3-8.5 22.2-.1 6.7-.8 9.4-3.9 17-7.6 17.9-14.6 35.8-15.8 39.9-.6 2.2-1.5 4.5-1.9 4.9-.3.5-3.7 1-7.5 1.2-9.2.5-24.9 2.4-30.4 3.7-2.5.5-5.8 1.2-7.5 1.5-6 1-23.3 7.2-31.1 11.1-13.7 6.9-25.2 16.8-30.9 26.6-2.3 4-4.8 12.3-6 20.1-1.3 8.7-3.6 17.3-6.1 22.3-2.8 5.4-2.8 5.5-.7 19.4.4 2.8-.1 4.7-1.8 7.4-3.1 5-3.2 15.8-.2 20 1.1 1.6 2.3 4.3 2.6 5.9 1.2 6.4-7 18.1-15.3 21.8-6.5 2.9-16.4 2.7-22.7-.4-10.8-5.4-12.1-14.6-3.8-27.1 2.6-3.9 4.4-7.2 4.2-7.5-.7-.6-8.1 3.3-9.6 5.1-.8.9-2.5 1.6-3.8 1.6-3.6 0-13.8 10.7-17.4 18.3-1.5 3.3-3.1 8-3.5 10.4-.3 2.4-.8 4.3-1.1 4.3-1 0-10.3-7.6-16.2-13.3-22.7-21.9-34.4-51.1-34.6-85.9 0-5.5-.3-8.4-1-7.7-1.4 1.4-3.2 13.6-3 20.3.2 4.6 0 5.4-.8 4-1.3-2.2-1.6-27.6-.5-37.4 3.2-28.6 18.9-63.7 41.7-93 6.2-8 24.4-27 32.1-33.5 27.5-23.3 65.7-41.5 101.2-47.9 13.4-2.5 13.9-2.5 23.3-3.2 5-.4 9.1-.7 9.2-.8.5-.4 21.4.2 28.1.8zm-192.6 20c-3.1 2.9-9.5 8.9-14.1 13.2-7.9 7.5-17.1 18.5-17.1 20.6 0 .5 2-.7 4.4-2.6 2.3-2 4.8-3.6 5.3-3.6 2.3 0 2 3-.7 6.6-4 5.5-10.3 17.4-9.3 17.5.4.1 1.9 0 3.2-.1 1.8-.1 2.2.2 1.8 1.3-.3.9-.1 1.7.5 1.9 1.2.4-4.2 12.2-9.9 21.5-16 26.1-19.4 32.4-23.3 42.2-1 2.7-2.7 6.8-3.8 9.2-1.1 2.4-2.9 6.6-4.1 9.4l-2.1 5 .5-4.2c2.3-17.5 14.8-49.9 27.3-71.1 1.7-2.8 2.6-5.2 2-5.2-.6 0-3.3 2-5.9 4.5-5.6 5.2-7.3 5.8-5.8 1.9 1.6-4.4.3-3.9-5.3 1.7-5.5 5.5-13 18.5-14.3 24.6-.3 1.8-1 3.5-1.4 3.8-2.6 1.5 6.7-28.1 12.1-39 6.5-13 24.2-39 22.3-32.8-1.2 4.3 1.9 2.4 9.2-5.5 4-4.2 9.8-9.8 13-12.3 6.5-5.2 19.3-13.9 20.4-13.9.4 0-1.8 2.4-4.9 5.4zm249.3 34.7c6.2 1.7 17.2 7.5 23.9 12.5l6.1 4.5-6.5-.8c-12.3-1.4-14-1.1-18.1 3.6-8.4 9.5-13.9 22.6-20.2 47.8-2.3 9.7-4.7 17.3-5.3 17.3-.7 0-4.1-1.4-7.7-3l-6.5-3.1 3.5-11.2c6.1-19.5 12.4-37 15.8-43.7 3.2-6.5 3.9-8.8 5.1-16.5.6-4.5 2.8-8.5 4.7-8.5.6 0 3 .5 5.2 1.1zm-52.8 100.7c5.3 2.8 11.7 9.3 14.4 14.8 1.6 3.3 2.4 4.2 3 3.2.5-.7.7-2 .5-2.8-.2-.8-.7-3.3-1.1-5.4-.6-3.6-.5-3.9 1-2.6 5.1 4.2 9.4 17.9 11.4 36.5l.7 6 1.2-5.3c.6-2.9 1.1-5.6 1.1-6-.1-.4-.1-2.7 0-5.2.1-3.5.4-4.1 1.2-2.8 2.6 4.5 1.3 13.7-4 28-2.4 6.7-2.7 13.4-.7 18.2 2.1 5.1 3.2 5 3.5-.2.3-4.4.7-8 1-9.2.2-.9 7.3 10.3 10.6 16.8 3.1 6.2 6 13.8 7.1 18.7 1.9 7.9 1.1 19.3-1.8 26.7-1.5 4-2.3 3.4-2.5-1.8-.2-5.9-1.2-11.4-2.1-11.4-.4 0-1.8 1.9-3.2 4.1-4.4 7.1-12.2 11.9-19.4 11.9-3 0-3-.1 1.3-2 4.1-1.9 7-4.5 7.1-6.3 0-1.6-17.3 2-26.8 5.5-7.4 2.7-12.2 5.8-15.7 10-2.9 3.4-6 9.7-5.1 10.5.2.2 3-1.6 6.1-4.1 3-2.5 5.7-4.6 5.8-4.6.1 0 1.6-.4 3.3-.9 3-.9 3-.8-1.5 3.8-3.3 3.3-5.9 7.5-9.1 14.6-2.4 5.5-5.7 11.7-7.3 13.8l-3 3.8 3.9-1.6c2.1-.9 4.9-2.8 6.2-4.2 1.4-1.7 2.2-2.1 2.2-1.2 0 .9-1.5 2.9-3.2 4.6-3.8 3.7-14.8 9.9-14.8 8.4 0-.6.9-3.4 2.1-6.2 1.1-2.9 1.9-6.7 1.7-8.6l-.3-3.3-3 2.6c-1.6 1.4-4.3 3.3-5.9 4.1l-2.8 1.5.7-4.4c1-5.7 1.1-7.7.2-11.6-.9-4.2-1.9-4.1-4 .7-2.3 5.2-5.2 8.7-10 12.2-5.3 3.8-6.1 3.7-4.1-.9 2.3-5.3 4.8-13.2 7.9-24.7 3.1-11.6 6.8-21 9.2-23.7 2-2.2.6-2.3-2.7-.1-7.2 4.8-11.5 10.5-19.4 26.3-7.7 15.2-13.8 22-24.1 27-8.2 4-13.4 5-24 4.5-9.3-.4-15.5-1.9-22-5.3l-3.8-1.9 5.2-.7c2.8-.4 6.3-1.2 7.6-1.8 2.7-1.2 4.1-3.7 2.2-4.2-4.3-1.2-19.5-7.1-21.9-8.6-2.8-1.7-2.8-1.7 6.4-1.5 10.5.3 18.1-1.3 24.6-5.1 4.7-2.8 10.2-9.6 10.2-12.6 0-1.8-.2-1.7-3.2.5-3.3 2.5-11.5 5.7-14.6 5.7-1.3 0-1.3-.3.5-1.5 1.2-.8 4.3-4.4 6.9-8 4.5-6.1 7-8.3 5.8-5-.5 1.1-.2 1.3 1 .9 4.3-1.6 3.9-11.7-.7-19.3-2.7-4.4-3.2-13.1-1-18 1.9-4.3 1.8-7-.3-13.3-1.4-4.4-1.4-5 .2-8 .9-1.8 2.5-4.9 3.5-6.8 1-1.9 2.1-6 2.5-9 .9-8.3 3.2-16.7 6.2-22.4 5.4-10.5 18.3-20.8 33.8-27 11.3-4.5 11.1-4.6 6.6 2-4.2 6.3-9.6 16.4-8.7 16.4.3 0 .1.9-.5 1.9-.5 1.1-1.3 5.3-1.6 9.3l-.5 7.3 2.6-4.9c3.7-7 6.1-10.3 12.4-16.9 5.8-6 21.3-17 29.1-20.7 5.4-2.5 12.7-2.2 18.7.8zm82.8 36.8c4.8 7.9 8.5 20.1 8.9 28.9.3 9-.7 12.8-1.9 6.5-.4-2.5-.9-5-1-5.5-3.3-13.3-7.3-25.1-11.6-33.8-2.2-4.3-3.9-8-3.9-8.3 0-1.2 6.4 7 9.5 12.2zm126.2 90.3c-.4 4.9-1.6 12.8-2.7 17.5-1.1 4.8-2 8.9-2 9.1 0 1.1 2.9.4 4-1 2.3-2.7 2.1-.9-.6 7.1-3.2 9.7-10.3 23.9-15.7 31.6-4.7 6.8-5.8 7.5-2.3 1.5 6.2-10.6 12.5-30.6 9.9-31.4-.8-.3-.7-1.8.4-5.6 3.2-11.3 7.2-28 7.8-32.7 1.1-8.1 1.8-5.7 1.2 3.9zm-373.4 14.3c2.3 5.5 7.4 12.6 12.9 18 2.6 2.7 4.4 4.8 3.9 4.8-2 0-9.9-3.3-13.3-5.5-4.9-3.3-9.6-9.4-7.9-10.4.8-.5 1.2-3 1-7.2-.2-8.1.1-10.2 1.1-6.4.4 1.6 1.4 4.7 2.3 6.7zm378.3 51.5c-2.5 7.2-7.6 17.7-12.8 26.2-4.6 7.8-18.4 27-23.7 33-2.1 2.4-2.1 2.4-2.1.2 0-1.8-.4-2-2.7-1.5-6.3 1.5-14.4 6-25.3 13.8-13.2 9.4-17.3 12-21.5 13.6-2.2.8-.2-1.7 8-9.6 6.1-5.9 15.4-14.9 20.7-20.1 6.7-6.6 9.5-8.7 9.1-7.1-.6 2.2-.5 2.2 1.4.5 1.1-.9 2.5-1.7 3.1-1.7 1.3 0 11.9-8.7 20.5-16.9 9.3-8.8 22.7-26.2 25-32.4 1.3-3.4 1.6-1.6.3 2z"/><path d="M275.5 317.8c-5.5 5.4-7 7.4-10.5 13.6-3.4 6-5.9 16.2-5.3 21.6.4 3.8 2.3 10.3 2.8 9.8.2-.2.7-2.6 1-5.3 1.8-14.6 8.4-32.7 14.2-38.9 4-4.4 2.1-5-2.2-.8zm73.9 6.9c2.2 3.8 2.9 20.5 1 27.5-2.2 8.4-5.1 10.3-17.9 11.3-8.3.7-21.1 3.2-24 4.7-4 2.1-6.6 5.3-7.9 9.9-4 13.5 3.1 27 14.1 26.9l2.8-.1-3-2.4c-3.5-2.9-3.2-3 2.4-1.1 3.8 1.4 16.3 1.5 21.6.3 1.1-.3 6.1-1.4 11.2-2.6 5.1-1.1 10.1-2.5 11.3-3.1 5.1-2.7 4.5-16.8-1.1-24.4-2.8-3.8-2.8-4.1-2.2-13 .9-13.8-2.7-29.9-7.5-33.8-1.2-1-1.4-1-.8-.1zm-91.9 46.7c-2.2.8-5.3 3-6.8 4.8-2.7 3.1-2.8 3.8-2.4 10 .7 11 5.9 15.8 17 15.8 5.9 0 9.5-2.3 10.3-6.8.3-2 1.5-5.3 2.6-7.2 1.1-1.9 2.2-4.4 2.4-5.5.6-3.2-1.5-8.2-4.3-10-3.6-2.4-13.7-2.9-18.8-1.1zm25 16c-4 3.1-10.9 21.9-9.9 26.9 1.7 9.4 2.4 10 6.4 5.6 1.6-1.8 3.2-3 3.6-2.6.4.4.7 2.7.7 5.2 0 4.5.1 4.6 2.6 4 3.7-.8 8.8-7 10.4-12.4 1.9-6.7 1.3-16.4-1.5-22-2.1-4.2-2.7-4.7-6.6-5.2-2.5-.3-4.9-.1-5.7.5zM256 420.7c0 1.6.7 5.2 1.4 8.1.8 3 1.2 6 .9 6.8-1.1 3 2.6.2 4.1-3.1 2.9-6 .2-14.5-4.6-14.5-1.3 0-1.8.7-1.8 2.7zm12.6 18.5c-5.4 9-9.6 11.7-23.7 15.3-3.6.9-7.9 2.5-9.5 3.6l-2.9 2 10.6-.3c20.6-.4 28.3-5.2 29.6-18.4.7-6.4-1.1-7.4-4.1-2.2z"/></svg>